<?xml version="1.0" encoding="UTF-8"?><svg xmlns="http://www.w3.org/2000/svg" xmlns:xlink="http://www.w3.org/1999/xlink" width="1440" zoomAndPan="magnify" viewBox="0 0 1440 809.999993" height="809.999993" preserveAspectRatio="xMidYMid meet" version="1.0"><defs><clipPath id="clip-0"><path d="M 446 22 L 994 22 L 994 626.695312 L 446 626.695312 Z M 446 22 " clip-rule="nonzero"/></clipPath><clipPath id="clip-1"><path d="M 439 22 L 1009 22 L 1009 626 L 439 626 Z M 439 22 " clip-rule="nonzero"/></clipPath><clipPath id="clip-2"><path d="M 600.125 723.058594 L 315.148438 225.949219 L 840.234375 -75.066406 L 1125.210938 422.039062 Z M 600.125 723.058594 " clip-rule="nonzero"/></clipPath><clipPath id="clip-3"><path d="M 600.125 723.058594 L 315.148438 225.949219 L 840.234375 -75.066406 L 1125.210938 422.039062 Z M 600.125 723.058594 " clip-rule="nonzero"/></clipPath></defs><g clip-path="url(#clip-0)"><path fill="rgb(54.899597%, 32.159424%, 100%)" d="M 919.429688 314.398438 L 919.519531 314.300781 L 919.417969 314.210938 C 975.453125 249.570312 994.484375 192.832031 971.414062 157.886719 C 958.460938 138.253906 933.125 127.878906 898.167969 127.878906 C 874.914062 127.878906 848.0625 132.359375 818.34375 141.105469 L 818.324219 141 L 818.191406 141.042969 C 813.445312 125.582031 808.179688 111.480469 802.453125 98.832031 C 808.558594 92.503906 812.335938 83.902344 812.335938 74.414062 C 812.335938 54.960938 796.609375 39.210938 777.171875 39.210938 C 772.546875 39.210938 768.144531 40.128906 764.101562 41.75 C 750.289062 29.128906 735.355469 22.460938 719.8125 22.460938 C 678.074219 22.460938 640.082031 71.726562 617.414062 154.675781 L 617.351562 154.660156 L 617.328125 154.746094 C 590.402344 148.792969 565.578125 145.75 543.484375 145.75 C 497.269531 145.75 465.917969 158.957031 452.789062 183.949219 C 433.328125 221.039062 457.953125 275.601562 520.195312 334.285156 L 520.105469 334.382812 L 520.203125 334.472656 C 464.152344 399.105469 445.117188 455.855469 468.179688 490.800781 C 474.757812 500.761719 484.539062 508.320312 497.121094 513.375 C 499.738281 530.214844 514.253906 543.132812 531.824219 543.132812 C 547.230469 543.132812 560.292969 533.1875 565.046875 519.378906 C 582.320312 517.453125 601.113281 513.511719 621.25 507.585938 L 621.289062 507.695312 L 621.414062 507.660156 C 644.585938 583.066406 680.199219 626.207031 719.808594 626.207031 C 761.542969 626.207031 799.53125 576.949219 822.167969 494.015625 L 822.234375 494.027344 L 822.257812 493.9375 C 849.183594 499.878906 874.011719 502.925781 896.105469 502.925781 L 896.117188 502.925781 C 942.328125 502.925781 973.695312 489.71875 986.8125 464.734375 C 1006.261719 427.652344 981.644531 373.09375 919.429688 314.398438 Z M 973.097656 457.523438 C 962.964844 476.804688 935.628906 487.417969 896.113281 487.417969 C 875.253906 487.414062 851.714844 484.554688 826.046875 478.917969 C 826.78125 475.84375 827.40625 472.640625 828.101562 469.519531 C 828.785156 466.4375 829.492188 463.390625 830.121094 460.257812 C 831.148438 455.214844 832.0625 450.058594 832.964844 444.894531 C 833.445312 442.160156 833.980469 439.480469 834.417969 436.714844 C 835.371094 430.832031 836.183594 424.828125 836.976562 418.800781 C 837.238281 418.800781 837.492188 418.839844 837.75 418.839844 C 857.1875 418.839844 872.929688 403.078125 872.929688 383.65625 C 872.929688 377.160156 871.140625 371.097656 868.074219 365.882812 C 868.191406 365.777344 868.308594 365.667969 868.425781 365.570312 C 869.777344 364.363281 871.097656 363.144531 872.441406 361.933594 C 874.210938 360.34375 875.984375 358.746094 877.71875 357.140625 C 879.121094 355.84375 880.492188 354.542969 881.871094 353.242188 C 883.5 351.707031 885.121094 350.179688 886.714844 348.644531 C 888.082031 347.328125 889.425781 346.011719 890.773438 344.691406 C 892.347656 343.148438 893.914062 341.597656 895.457031 340.042969 C 896.742188 338.746094 898.015625 337.457031 899.285156 336.152344 C 900.847656 334.546875 902.390625 332.941406 903.929688 331.328125 C 905.113281 330.085938 906.292969 328.835938 907.457031 327.59375 C 907.988281 327.019531 908.554688 326.441406 909.082031 325.871094 C 964.105469 377.921875 988.589844 427.984375 973.097656 457.523438 Z M 719.8125 610.6875 C 687.890625 610.6875 656.875 570.585938 636.132812 502.96875 C 637.15625 502.628906 638.199219 502.246094 639.230469 501.898438 C 640.613281 501.429688 642.007812 500.941406 643.410156 500.460938 C 645.9375 499.574219 648.46875 498.667969 651.011719 497.734375 C 652.492188 497.191406 653.976562 496.640625 655.46875 496.085938 C 657.96875 495.136719 660.484375 494.160156 663.003906 493.164062 C 664.511719 492.570312 666.007812 491.984375 667.519531 491.375 C 670.097656 490.328125 672.691406 489.242188 675.273438 488.148438 C 676.722656 487.535156 678.171875 486.941406 679.613281 486.316406 C 682.515625 485.0625 685.4375 483.757812 688.339844 482.445312 C 689.484375 481.933594 690.621094 481.441406 691.757812 480.917969 C 695.773438 479.074219 699.796875 477.179688 703.84375 475.222656 C 705.039062 474.648438 706.234375 474.027344 707.433594 473.445312 C 710.292969 472.042969 713.152344 470.625 716.023438 469.167969 C 717.820312 468.25 719.625 467.300781 721.421875 466.363281 C 723.195312 465.4375 724.972656 464.539062 726.761719 463.585938 L 726.777344 463.589844 L 726.792969 463.585938 C 727.363281 463.816406 727.933594 464.023438 728.503906 464.257812 C 734.761719 466.792969 740.984375 469.242188 747.179688 471.542969 C 747.316406 471.59375 747.460938 471.640625 747.597656 471.691406 C 753.777344 473.980469 759.914062 476.132812 766.023438 478.191406 C 766.773438 478.445312 767.53125 478.714844 768.285156 478.964844 C 774.167969 480.921875 780.011719 482.746094 785.816406 484.476562 C 786.867188 484.792969 787.917969 485.105469 788.984375 485.414062 C 794.710938 487.078125 800.394531 488.644531 806.027344 490.089844 C 806.378906 490.179688 806.753906 490.296875 807.101562 490.386719 C 786.703125 564.800781 753.570312 610.6875 719.8125 610.6875 Z M 531.824219 472.753906 C 516.234375 472.753906 503.03125 482.910156 498.421875 496.972656 C 491.511719 493.535156 485.445312 488.792969 481.113281 482.25 C 462.742188 454.417969 482.097656 402.152344 531.65625 344.847656 C 531.882812 345.046875 532.136719 345.242188 532.355469 345.445312 C 536.851562 349.402344 541.480469 353.335938 546.238281 357.246094 C 547.019531 357.898438 547.824219 358.542969 548.613281 359.1875 C 553.394531 363.078125 558.285156 366.9375 563.316406 370.769531 C 563.984375 371.277344 564.664062 371.773438 565.332031 372.28125 C 570.402344 376.109375 575.574219 379.90625 580.882812 383.667969 C 581.179688 383.878906 581.457031 384.089844 581.761719 384.300781 C 587.128906 388.085938 592.644531 391.824219 598.238281 395.539062 C 598.84375 395.941406 599.414062 396.355469 600.023438 396.757812 L 600.023438 396.773438 L 600.035156 396.777344 C 600.253906 398.96875 600.5 401.109375 600.742188 403.28125 C 600.921875 404.992188 601.097656 406.71875 601.292969 408.421875 C 601.75 412.324219 602.242188 416.195312 602.746094 420.039062 C 602.824219 420.609375 602.882812 421.191406 602.960938 421.765625 C 603.574219 426.277344 604.230469 430.742188 604.921875 435.164062 C 605.070312 436.039062 605.226562 436.890625 605.367188 437.757812 C 605.917969 441.207031 606.5 444.636719 607.105469 448.019531 C 607.371094 449.527344 607.660156 451.011719 607.941406 452.507812 C 608.449219 455.207031 608.960938 457.894531 609.507812 460.542969 C 609.851562 462.292969 610.230469 464.023438 610.59375 465.757812 C 611.097656 468.109375 611.597656 470.445312 612.128906 472.757812 C 612.546875 474.617188 612.980469 476.457031 613.417969 478.292969 C 613.929688 480.433594 614.445312 482.558594 614.984375 484.667969 C 615.464844 486.578125 615.949219 488.488281 616.445312 490.371094 C 616.652344 491.136719 616.832031 491.925781 617.042969 492.691406 C 599.214844 497.9375 582.226562 501.585938 566.683594 503.566406 C 564.523438 486.195312 549.753906 472.753906 531.824219 472.753906 Z M 466.511719 191.160156 C 476.632812 171.878906 503.964844 161.261719 543.484375 161.261719 C 564.34375 161.261719 587.882812 164.125 613.539062 169.769531 C 612.773438 172.964844 612.121094 176.292969 611.414062 179.546875 C 610.773438 182.460938 610.097656 185.34375 609.507812 188.300781 C 608.417969 193.667969 607.441406 199.148438 606.484375 204.644531 C 606.070312 207.046875 605.601562 209.390625 605.207031 211.8125 C 603.917969 219.84375 602.746094 227.992188 601.734375 236.28125 C 601.695312 236.621094 601.667969 236.980469 601.625 237.324219 C 600.746094 244.617188 599.964844 252 599.308594 259.480469 L 599.300781 259.492188 L 599.300781 259.511719 C 597.085938 261.269531 594.925781 263.039062 592.753906 264.808594 C 592.117188 265.332031 591.464844 265.847656 590.824219 266.367188 C 583.992188 271.988281 577.347656 277.652344 570.917969 283.367188 C 570.203125 284 569.507812 284.640625 568.804688 285.277344 C 566.394531 287.433594 564.011719 289.597656 561.652344 291.765625 C 560.574219 292.773438 559.511719 293.78125 558.445312 294.789062 C 556.507812 296.609375 554.585938 298.429688 552.683594 300.253906 C 551.519531 301.378906 550.378906 302.507812 549.226562 303.632812 C 547.453125 305.371094 545.699219 307.109375 543.972656 308.851562 C 542.824219 310.003906 541.691406 311.152344 540.570312 312.304688 C 538.839844 314.066406 537.148438 315.839844 535.460938 317.617188 C 534.414062 318.710938 533.378906 319.808594 532.351562 320.902344 C 531.753906 321.542969 531.136719 322.183594 530.542969 322.824219 C 475.5 270.765625 451.011719 220.699219 466.511719 191.160156 Z M 719.8125 37.984375 C 730.433594 37.984375 740.949219 42.523438 751.023438 50.945312 C 745.441406 57.179688 742.019531 65.382812 742.019531 74.421875 C 742.019531 93.835938 757.757812 109.601562 777.167969 109.601562 C 781.449219 109.601562 785.523438 108.800781 789.3125 107.402344 C 794.410156 118.945312 799.171875 131.699219 803.476562 145.71875 C 802.59375 146.011719 801.699219 146.339844 800.804688 146.640625 C 799.15625 147.195312 797.503906 147.773438 795.835938 148.355469 C 793.546875 149.152344 791.253906 149.976562 788.949219 150.820312 C 787.3125 151.417969 785.675781 152.027344 784.027344 152.644531 C 781.660156 153.539062 779.285156 154.46875 776.898438 155.40625 C 775.296875 156.035156 773.703125 156.660156 772.09375 157.3125 C 769.582031 158.320312 767.066406 159.382812 764.542969 160.441406 C 763.046875 161.074219 761.5625 161.691406 760.0625 162.335938 C 757.179688 163.574219 754.289062 164.871094 751.402344 166.171875 C 750.238281 166.703125 749.082031 167.191406 747.917969 167.726562 C 743.886719 169.570312 739.847656 171.472656 735.777344 173.441406 C 734.773438 173.921875 733.769531 174.441406 732.769531 174.933594 C 729.695312 176.441406 726.613281 177.964844 723.515625 179.535156 C 721.902344 180.355469 720.273438 181.21875 718.652344 182.066406 C 716.710938 183.070312 714.769531 184.054688 712.820312 185.089844 L 712.800781 185.085938 L 712.785156 185.097656 C 712.210938 184.863281 711.648438 184.664062 711.082031 184.429688 C 704.832031 181.894531 698.621094 179.457031 692.4375 177.15625 C 692.269531 177.089844 692.101562 177.027344 691.921875 176.964844 C 685.757812 174.679688 679.628906 172.535156 673.539062 170.484375 C 672.796875 170.242188 672.066406 169.976562 671.332031 169.734375 C 665.417969 167.769531 659.546875 165.933594 653.71875 164.199219 C 652.691406 163.898438 651.671875 163.597656 650.652344 163.292969 C 644.917969 161.621094 639.230469 160.054688 633.589844 158.613281 C 633.222656 158.523438 632.839844 158.402344 632.472656 158.3125 C 652.902344 83.867188 686.035156 37.984375 719.8125 37.984375 Z M 958.488281 166.441406 C 976.867188 194.269531 957.507812 246.535156 907.96875 303.84375 C 907.613281 303.527344 907.222656 303.214844 906.863281 302.902344 C 902.570312 299.125 898.148438 295.363281 893.605469 291.636719 C 892.640625 290.839844 891.667969 290.046875 890.6875 289.253906 C 886 285.449219 881.226562 281.671875 876.304688 277.933594 C 875.597656 277.382812 874.855469 276.84375 874.132812 276.296875 C 869.046875 272.460938 863.867188 268.660156 858.542969 264.890625 C 858.316406 264.726562 858.089844 264.558594 857.851562 264.394531 C 852.421875 260.5625 846.839844 256.78125 841.167969 253.03125 C 840.628906 252.671875 840.121094 252.300781 839.578125 251.941406 L 839.578125 251.929688 L 839.558594 251.917969 C 839.347656 249.78125 839.101562 247.675781 838.871094 245.550781 C 838.679688 243.789062 838.503906 242.019531 838.308594 240.269531 C 837.84375 236.246094 837.34375 232.261719 836.820312 228.304688 C 836.753906 227.863281 836.707031 227.417969 836.648438 226.980469 C 836.03125 222.421875 835.371094 217.902344 834.667969 213.4375 C 834.574219 212.886719 834.484375 212.34375 834.386719 211.792969 C 833.78125 207.992188 833.144531 204.226562 832.472656 200.496094 C 832.261719 199.296875 832.023438 198.121094 831.808594 196.929688 C 831.238281 193.875 830.65625 190.832031 830.042969 187.824219 C 829.757812 186.445312 829.464844 185.074219 829.179688 183.710938 C 828.59375 180.910156 827.980469 178.132812 827.355469 175.378906 C 827.039062 173.976562 826.710938 172.585938 826.378906 171.191406 C 825.734375 168.457031 825.070312 165.742188 824.382812 163.054688 C 824.054688 161.769531 823.730469 160.496094 823.394531 159.21875 C 823.113281 158.152344 822.84375 157.058594 822.5625 156 C 850.640625 147.742188 876.648438 143.398438 898.15625 143.398438 C 918.746094 143.390625 945.90625 147.390625 958.488281 166.441406 Z M 631.871094 488 C 631.726562 487.472656 631.574219 486.957031 631.4375 486.425781 C 630.011719 481.066406 628.667969 475.621094 627.394531 470.054688 C 627.152344 468.972656 626.921875 467.871094 626.675781 466.78125 C 625.570312 461.777344 624.527344 456.695312 623.535156 451.539062 C 623.320312 450.390625 623.085938 449.253906 622.871094 448.09375 C 621.785156 442.21875 620.785156 436.246094 619.855469 430.179688 C 619.660156 428.886719 619.480469 427.578125 619.289062 426.277344 C 618.460938 420.644531 617.695312 414.941406 617 409.15625 C 616.9375 408.589844 616.859375 408.035156 616.789062 407.464844 C 616.894531 407.53125 616.996094 407.585938 617.109375 407.65625 C 623.714844 411.746094 630.417969 415.707031 637.167969 419.59375 C 638.726562 420.496094 640.292969 421.382812 641.863281 422.277344 C 648.679688 426.144531 655.535156 429.941406 662.457031 433.578125 C 669.121094 437.085938 675.867188 440.457031 682.648438 443.761719 C 684.335938 444.582031 686.011719 445.390625 687.6875 446.195312 C 694.496094 449.449219 701.320312 452.632812 708.183594 455.664062 C 708.210938 455.675781 708.238281 455.691406 708.265625 455.703125 C 707.691406 455.992188 707.117188 456.261719 706.550781 456.554688 C 701.375 459.164062 696.238281 461.660156 691.109375 464.078125 C 689.886719 464.652344 688.644531 465.246094 687.417969 465.816406 C 681.800781 468.414062 676.203125 470.914062 670.636719 473.277344 C 669.566406 473.730469 668.496094 474.167969 667.417969 474.617188 C 662.386719 476.722656 657.390625 478.726562 652.417969 480.636719 C 651.523438 480.976562 650.621094 481.335938 649.734375 481.671875 C 644.191406 483.761719 638.691406 485.714844 633.234375 487.550781 C 632.773438 487.703125 632.324219 487.847656 631.871094 488 Z M 542.03125 333.285156 C 542.402344 332.882812 542.761719 332.484375 543.128906 332.082031 C 546.742188 328.203125 550.441406 324.335938 554.253906 320.480469 C 554.859375 319.863281 555.484375 319.257812 556.101562 318.644531 C 559.5625 315.183594 563.105469 311.734375 566.726562 308.292969 C 567.613281 307.457031 568.480469 306.621094 569.375 305.785156 C 573.523438 301.894531 577.773438 298.011719 582.128906 294.152344 C 582.765625 293.585938 583.429688 293.027344 584.070312 292.460938 C 587.996094 289.011719 592.007812 285.582031 596.089844 282.164062 C 596.652344 281.699219 597.207031 281.230469 597.765625 280.761719 C 597.707031 281.695312 597.691406 282.636719 597.644531 283.566406 C 597.359375 288.820312 597.136719 294.085938 596.960938 299.375 C 596.898438 301.226562 596.839844 303.066406 596.792969 304.925781 C 596.628906 311.390625 596.511719 317.863281 596.511719 324.339844 C 596.511719 332.113281 596.675781 339.898438 596.921875 347.675781 C 596.984375 349.628906 597.046875 351.574219 597.121094 353.523438 C 597.421875 361.183594 597.796875 368.832031 598.328125 376.4375 C 598.34375 376.601562 598.34375 376.769531 598.359375 376.933594 C 597.730469 376.5 597.105469 376.066406 596.476562 375.632812 C 592.636719 372.988281 588.863281 370.320312 585.144531 367.636719 C 584.222656 366.976562 583.292969 366.316406 582.382812 365.648438 C 578.125 362.539062 573.949219 359.402344 569.855469 356.246094 C 568.871094 355.484375 567.917969 354.722656 566.9375 353.96875 C 563.492188 351.273438 560.101562 348.566406 556.785156 345.847656 C 555.953125 345.164062 555.101562 344.488281 554.277344 343.800781 C 550.433594 340.609375 546.699219 337.40625 543.039062 334.191406 C 542.703125 333.890625 542.375 333.589844 542.03125 333.285156 Z M 629.972656 173.699219 C 634.628906 174.902344 639.328125 176.164062 644.0625 177.527344 C 645.035156 177.804688 646.011719 178.109375 646.988281 178.394531 C 651.070312 179.589844 655.175781 180.84375 659.300781 182.148438 C 660.453125 182.515625 661.605469 182.878906 662.769531 183.25 C 667.625 184.828125 672.515625 186.480469 677.429688 188.21875 C 678.363281 188.546875 679.285156 188.894531 680.214844 189.226562 C 684.441406 190.746094 688.679688 192.316406 692.941406 193.945312 C 693.683594 194.234375 694.425781 194.511719 695.164062 194.800781 C 695.140625 194.808594 695.128906 194.824219 695.101562 194.839844 C 688.609375 198.527344 682.179688 202.355469 675.777344 206.246094 C 674.09375 207.269531 672.425781 208.292969 670.75 209.332031 C 664.375 213.277344 658.042969 217.277344 651.804688 221.398438 C 646.414062 224.964844 641.070312 228.648438 635.734375 232.371094 C 634.304688 233.371094 632.878906 234.386719 631.453125 235.398438 C 627.070312 238.507812 622.722656 241.667969 618.402344 244.871094 C 617.695312 245.402344 616.96875 245.898438 616.265625 246.421875 C 616.445312 244.765625 616.585938 243.070312 616.773438 241.417969 C 617.054688 239.101562 617.339844 236.792969 617.628906 234.5 C 618.375 228.695312 619.191406 222.964844 620.078125 217.300781 C 620.378906 215.378906 620.644531 213.4375 620.964844 211.53125 C 622.1875 204.164062 623.515625 196.910156 624.984375 189.800781 C 625.230469 188.605469 625.515625 187.445312 625.765625 186.253906 C 626.695312 181.894531 627.722656 177.652344 628.738281 173.398438 C 629.152344 173.5 629.554688 173.59375 629.972656 173.699219 Z M 807.734375 160.679688 C 807.878906 161.214844 808.035156 161.738281 808.175781 162.269531 C 809.589844 167.609375 810.933594 173.042969 812.203125 178.582031 C 812.464844 179.722656 812.703125 180.890625 812.953125 182.03125 C 814.046875 186.953125 815.078125 191.941406 816.046875 197.011719 C 816.277344 198.226562 816.527344 199.433594 816.757812 200.660156 C 817.835938 206.511719 818.832031 212.457031 819.757812 218.496094 C 819.945312 219.785156 820.132812 221.09375 820.320312 222.386719 C 821.167969 228.128906 821.949219 233.9375 822.640625 239.835938 C 822.699219 240.296875 822.757812 240.75 822.8125 241.21875 C 822.742188 241.179688 822.679688 241.136719 822.617188 241.101562 C 816.050781 237.039062 809.363281 233.082031 802.636719 229.199219 C 800.980469 228.25 799.335938 227.3125 797.675781 226.371094 C 790.890625 222.527344 784.054688 218.742188 777.136719 215.109375 C 770.425781 211.582031 763.617188 208.183594 756.777344 204.851562 C 755.203125 204.082031 753.628906 203.320312 752.046875 202.566406 C 745.207031 199.289062 738.335938 196.085938 731.425781 193.03125 C 731.394531 193.019531 731.359375 193 731.328125 192.984375 C 731.851562 192.71875 732.375 192.464844 732.898438 192.203125 C 738.144531 189.554688 743.375 187.015625 748.582031 184.566406 C 749.789062 184 751.007812 183.414062 752.21875 182.859375 C 757.835938 180.253906 763.433594 177.761719 768.996094 175.398438 C 770.105469 174.921875 771.210938 174.476562 772.320312 174.011719 C 777.285156 171.9375 782.210938 169.960938 787.113281 168.082031 C 788.066406 167.71875 789.023438 167.332031 789.976562 166.972656 C 795.492188 164.890625 800.960938 162.957031 806.382812 161.128906 C 806.84375 160.976562 807.285156 160.835938 807.734375 160.679688 Z M 725.914062 446.378906 C 723.824219 445.496094 721.738281 444.601562 719.648438 443.699219 C 717.394531 442.726562 715.140625 441.765625 712.894531 440.765625 C 710.242188 439.585938 707.601562 438.367188 704.960938 437.148438 C 702.742188 436.132812 700.507812 435.132812 698.292969 434.089844 C 695.503906 432.773438 692.730469 431.410156 689.941406 430.058594 C 687.917969 429.070312 685.878906 428.105469 683.863281 427.097656 C 679.101562 424.726562 674.359375 422.308594 669.660156 419.832031 C 664.835938 417.292969 660.015625 414.679688 655.214844 412.019531 C 653.851562 411.261719 652.503906 410.472656 651.144531 409.707031 C 647.738281 407.785156 644.332031 405.867188 640.957031 403.886719 C 639.183594 402.851562 637.4375 401.789062 635.675781 400.734375 C 632.757812 399 629.839844 397.265625 626.960938 395.488281 C 624.945312 394.253906 622.964844 392.984375 620.972656 391.734375 C 618.90625 390.433594 616.855469 389.136719 614.804688 387.824219 C 614.570312 385.128906 614.351562 382.417969 614.148438 379.707031 C 614 377.691406 613.820312 375.675781 613.6875 373.648438 C 613.453125 370.230469 613.273438 366.792969 613.09375 363.351562 C 612.984375 361.304688 612.851562 359.257812 612.761719 357.199219 C 612.597656 353.515625 612.488281 349.824219 612.375 346.136719 C 612.328125 344.34375 612.246094 342.550781 612.207031 340.75 C 612.082031 335.277344 612.015625 329.796875 612.015625 324.332031 C 612.015625 315.195312 612.207031 306.050781 612.539062 296.945312 C 612.5625 296.398438 612.570312 295.847656 612.59375 295.296875 C 612.9375 286.519531 613.453125 277.789062 614.117188 269.140625 C 614.148438 268.601562 614.191406 268.0625 614.226562 267.519531 C 615.992188 266.15625 617.757812 264.796875 619.523438 263.441406 C 621.171875 262.1875 622.800781 260.925781 624.453125 259.6875 C 626.808594 257.917969 629.191406 256.183594 631.566406 254.441406 C 633.144531 253.285156 634.714844 252.117188 636.300781 250.96875 C 638.859375 249.121094 641.445312 247.316406 644.023438 245.507812 C 645.449219 244.507812 646.867188 243.488281 648.300781 242.496094 C 652.3125 239.730469 656.328125 237 660.367188 234.335938 C 664.839844 231.382812 669.34375 228.476562 673.890625 225.617188 C 675.285156 224.738281 676.691406 223.894531 678.089844 223.035156 C 681.238281 221.078125 684.382812 219.125 687.570312 217.210938 C 689.355469 216.136719 691.160156 215.105469 692.949219 214.050781 C 695.773438 212.390625 698.585938 210.726562 701.429688 209.109375 C 703.363281 208.003906 705.308594 206.933594 707.25 205.84375 C 709.394531 204.644531 711.542969 203.449219 713.699219 202.28125 C 715.882812 203.199219 718.058594 204.148438 720.242188 205.089844 C 722.378906 206.015625 724.519531 206.925781 726.652344 207.871094 C 729.515625 209.140625 732.363281 210.457031 735.210938 211.765625 C 737.21875 212.691406 739.230469 213.589844 741.226562 214.53125 C 744.441406 216.046875 747.644531 217.609375 750.832031 219.167969 C 752.445312 219.953125 754.0625 220.714844 755.667969 221.519531 C 760.46875 223.90625 765.242188 226.339844 769.96875 228.828125 C 774.847656 231.394531 779.699219 234.023438 784.519531 236.699219 C 785.792969 237.40625 787.058594 238.148438 788.332031 238.867188 C 791.835938 240.847656 795.335938 242.824219 798.796875 244.847656 C 800.503906 245.847656 802.195312 246.878906 803.898438 247.894531 C 806.867188 249.667969 809.835938 251.433594 812.769531 253.238281 C 814.730469 254.449219 816.660156 255.679688 818.605469 256.902344 C 820.691406 258.210938 822.765625 259.523438 824.832031 260.851562 C 825.027344 263.054688 825.191406 265.273438 825.371094 267.488281 C 825.570312 270.078125 825.792969 272.660156 825.960938 275.257812 C 826.167969 278.355469 826.328125 281.472656 826.496094 284.589844 C 826.621094 286.90625 826.78125 289.21875 826.882812 291.535156 C 827.039062 295.132812 827.144531 298.734375 827.25 302.335938 C 827.308594 304.199219 827.390625 306.050781 827.429688 307.917969 C 827.558594 313.394531 827.621094 318.871094 827.621094 324.339844 C 827.621094 332.550781 827.441406 340.804688 827.15625 349.0625 C 827.144531 349.40625 827.136719 349.757812 827.125 350.105469 C 812.925781 354.625 802.628906 367.921875 802.628906 383.644531 C 802.628906 388.164062 803.511719 392.464844 805.0625 396.433594 C 804.511719 396.832031 803.972656 397.238281 803.421875 397.632812 C 801.007812 399.371094 798.566406 401.074219 796.132812 402.789062 C 794.550781 403.894531 792.988281 405.019531 791.398438 406.121094 C 787.375 408.890625 783.332031 411.636719 779.265625 414.332031 C 774.777344 417.300781 770.242188 420.21875 765.6875 423.085938 C 764.296875 423.960938 762.894531 424.800781 761.5 425.667969 C 758.339844 427.632812 755.183594 429.589844 751.996094 431.5 C 750.1875 432.582031 748.375 433.625 746.5625 434.695312 C 743.773438 436.332031 740.984375 437.984375 738.175781 439.582031 C 736.230469 440.691406 734.277344 441.765625 732.320312 442.855469 C 730.167969 444.042969 728.042969 445.222656 725.914062 446.378906 Z M 842.648438 348.832031 C 842.707031 347.167969 842.761719 345.511719 842.804688 343.847656 C 842.972656 337.335938 843.089844 330.820312 843.089844 324.339844 C 843.089844 316.554688 842.925781 308.753906 842.679688 300.96875 C 842.617188 299.046875 842.558594 297.136719 842.480469 295.21875 C 842.175781 287.480469 841.792969 279.753906 841.257812 272.070312 C 841.25 271.960938 841.25 271.847656 841.238281 271.742188 C 841.871094 272.183594 842.507812 272.621094 843.136719 273.054688 C 847.027344 275.730469 850.847656 278.429688 854.617188 281.148438 C 855.441406 281.746094 856.277344 282.339844 857.101562 282.9375 C 861.421875 286.089844 865.652344 289.269531 869.804688 292.472656 C 870.707031 293.175781 871.605469 293.878906 872.503906 294.582031 C 876.042969 297.339844 879.507812 300.109375 882.90625 302.902344 C 883.691406 303.542969 884.492188 304.183594 885.265625 304.824219 C 889.132812 308.03125 892.898438 311.257812 896.59375 314.5 C 896.921875 314.796875 897.253906 315.09375 897.585938 315.394531 C 897.199219 315.808594 896.832031 316.226562 896.445312 316.636719 C 892.859375 320.488281 889.1875 324.335938 885.398438 328.164062 C 884.757812 328.8125 884.089844 329.457031 883.445312 330.101562 C 880.011719 333.539062 876.484375 336.96875 872.878906 340.386719 C 872.007812 341.210938 871.144531 342.042969 870.261719 342.867188 C 866.101562 346.765625 861.859375 350.648438 857.496094 354.511719 C 853.152344 351.558594 848.097656 349.59375 842.648438 348.832031 Z M 792.527344 470.265625 C 788.511719 469.085938 784.476562 467.847656 780.414062 466.558594 C 779.203125 466.171875 777.992188 465.796875 776.777344 465.398438 C 771.953125 463.832031 767.125 462.199219 762.246094 460.472656 C 761.238281 460.121094 760.21875 459.738281 759.210938 459.375 C 755.070312 457.886719 750.917969 456.34375 746.742188 454.746094 C 745.972656 454.449219 745.207031 454.164062 744.4375 453.863281 C 744.460938 453.851562 744.476562 453.835938 744.5 453.824219 C 751.007812 450.125 757.480469 446.273438 763.929688 442.355469 C 765.5 441.398438 767.066406 440.441406 768.628906 439.472656 C 775.070312 435.488281 781.476562 431.441406 787.792969 427.265625 C 793.226562 423.664062 798.605469 419.964844 803.941406 416.234375 C 805.371094 415.234375 806.792969 414.21875 808.226562 413.210938 C 810.070312 411.898438 811.925781 410.605469 813.75 409.285156 C 816.167969 411.546875 818.890625 413.46875 821.855469 414.980469 C 821.144531 420.484375 820.378906 425.929688 819.539062 431.304688 C 819.226562 433.285156 818.945312 435.285156 818.621094 437.25 C 817.410156 444.535156 816.085938 451.714844 814.644531 458.746094 C 814.347656 460.164062 814.019531 461.527344 813.714844 462.933594 C 812.820312 467.121094 811.84375 471.199219 810.855469 475.277344 C 810.441406 475.171875 810.035156 475.074219 809.621094 474.96875 C 804.976562 473.773438 800.292969 472.511719 795.582031 471.15625 C 794.5625 470.875 793.542969 470.5625 792.527344 470.265625 Z M 792.527344 470.265625 " fill-opacity="1" fill-rule="nonzero"/></g><g clip-path="url(#clip-1)"><g clip-path="url(#clip-2)"><g clip-path="url(#clip-3)"><path fill="rgb(54.899597%, 32.159424%, 100%)" d="M 612.519531 155.640625 L 612.386719 155.613281 L 612.359375 155.746094 C 528.414062 139.277344 469.726562 150.988281 450.882812 188.378906 C 440.292969 209.382812 443.894531 236.523438 461.28125 266.847656 C 472.84375 287.023438 490.085938 308.089844 512.453125 329.523438 L 512.371094 329.59375 L 512.476562 329.6875 C 501.425781 341.492188 491.808594 353.074219 483.679688 364.332031 C 475.15625 362.183594 465.816406 363.1875 457.585938 367.90625 C 440.710938 377.578125 434.867188 399.054688 444.535156 415.917969 C 446.832031 419.929688 449.816406 423.296875 453.238281 425.996094 C 449.15625 444.257812 450.800781 460.527344 458.53125 474.007812 C 479.289062 510.21875 540.921875 518.679688 624.15625 497.09375 L 624.175781 497.15625 L 624.257812 497.132812 C 632.488281 523.453125 642.195312 546.5 653.183594 565.667969 C 676.167969 605.761719 703.214844 626.394531 731.429688 625.355469 C 773.285156 623.789062 808.371094 575.292969 828.328125 492.109375 L 828.457031 492.140625 L 828.484375 492.007812 C 912.433594 508.492188 971.132812 496.78125 989.980469 459.394531 C 995.351562 448.734375 997.042969 436.488281 995.167969 423.058594 C 1008.476562 412.414062 1012.464844 393.398438 1003.726562 378.152344 C 996.0625 364.785156 980.9375 358.402344 966.597656 361.144531 C 956.335938 347.117188 943.570312 332.773438 928.414062 318.25 L 928.492188 318.160156 L 928.394531 318.070312 C 982.289062 260.46875 1002.003906 208.113281 982.304688 173.75 C 961.550781 137.542969 899.921875 129.082031 816.714844 150.691406 L 816.691406 150.628906 L 816.601562 150.652344 C 808.367188 124.339844 798.660156 101.285156 787.671875 82.113281 L 787.667969 82.105469 C 764.683594 42.015625 737.628906 21.371094 709.425781 22.414062 C 667.585938 23.984375 632.496094 72.476562 612.519531 155.640625 Z M 709.992188 37.902344 C 731.761719 37.101562 754.5625 55.539062 774.21875 89.820312 C 784.585938 107.921875 793.816406 129.761719 801.6875 154.835938 C 798.65625 155.726562 795.570312 156.777344 792.515625 157.726562 C 789.5 158.667969 786.503906 159.566406 783.472656 160.582031 C 778.589844 162.199219 773.660156 163.96875 768.730469 165.753906 C 766.117188 166.695312 763.53125 167.566406 760.914062 168.558594 C 755.335938 170.660156 749.722656 172.941406 744.097656 175.25 C 743.96875 175.023438 743.875 174.785156 743.746094 174.5625 C 734.082031 157.699219 712.578125 151.882812 695.730469 161.539062 C 690.09375 164.769531 685.722656 169.335938 682.722656 174.589844 C 682.574219 174.542969 682.421875 174.492188 682.277344 174.441406 C 680.558594 173.867188 678.847656 173.328125 677.128906 172.765625 C 674.863281 172.019531 672.597656 171.277344 670.34375 170.574219 C 668.519531 169.996094 666.710938 169.457031 664.894531 168.90625 C 662.753906 168.257812 660.621094 167.609375 658.5 166.992188 C 656.675781 166.460938 654.867188 165.949219 653.050781 165.4375 C 650.929688 164.839844 648.804688 164.25 646.6875 163.6875 C 644.925781 163.214844 643.171875 162.753906 641.410156 162.300781 C 639.238281 161.742188 637.078125 161.199219 634.914062 160.667969 C 633.246094 160.257812 631.578125 159.859375 629.921875 159.46875 C 629.15625 159.289062 628.375 159.085938 627.617188 158.914062 C 645.410156 85.289062 676.664062 39.148438 709.992188 37.902344 Z M 968.835938 181.464844 C 984.714844 209.160156 965.351562 256.011719 917.003906 307.636719 C 916.203125 306.914062 915.355469 306.199219 914.539062 305.480469 C 913.441406 304.511719 912.324219 303.542969 911.210938 302.570312 C 909.1875 300.816406 907.136719 299.070312 905.066406 297.328125 C 903.855469 296.316406 902.640625 295.300781 901.417969 294.285156 C 899.351562 292.585938 897.253906 290.890625 895.136719 289.195312 C 893.871094 288.183594 892.617188 287.179688 891.339844 286.167969 C 889.148438 284.453125 886.917969 282.746094 884.683594 281.046875 C 883.429688 280.097656 882.195312 279.132812 880.9375 278.191406 C 878.40625 276.296875 875.816406 274.414062 873.234375 272.546875 C 872.222656 271.8125 871.230469 271.070312 870.210938 270.34375 C 866.617188 267.777344 862.972656 265.226562 859.261719 262.6875 C 858.167969 261.9375 857.035156 261.210938 855.933594 260.457031 C 853.296875 258.675781 850.644531 256.898438 847.949219 255.136719 C 846.261719 254.03125 844.539062 252.941406 842.832031 251.847656 C 841.144531 250.765625 839.480469 249.671875 837.765625 248.597656 L 837.761719 248.582031 L 837.75 248.570312 C 837.667969 247.957031 837.5625 247.359375 837.480469 246.75 C 836.566406 240.058594 835.597656 233.445312 834.515625 226.925781 C 834.492188 226.78125 834.460938 226.632812 834.433594 226.488281 C 833.347656 219.988281 832.164062 213.59375 830.910156 207.269531 C 830.757812 206.492188 830.617188 205.703125 830.457031 204.921875 C 829.226562 198.84375 827.90625 192.871094 826.519531 186.972656 C 826.273438 185.902344 826.019531 184.835938 825.757812 183.757812 C 824.355469 177.960938 822.886719 172.253906 821.335938 166.644531 C 821.242188 166.296875 821.15625 165.914062 821.0625 165.566406 C 895.765625 146.253906 952.046875 152.179688 968.835938 181.464844 Z M 942.671875 413.15625 C 950.421875 426.679688 965.804688 433.082031 980.292969 430.089844 C 980.746094 437.792969 979.652344 445.414062 976.128906 452.425781 C 961.121094 482.207031 906.152344 491.40625 831.789062 476.914062 C 831.851562 476.617188 831.894531 476.300781 831.960938 476.007812 C 833.15625 470.140625 834.269531 464.167969 835.296875 458.09375 C 835.472656 457.09375 835.632812 456.074219 835.800781 455.070312 C 836.792969 448.984375 837.710938 442.824219 838.53125 436.554688 C 838.640625 435.722656 838.734375 434.882812 838.84375 434.054688 C 839.640625 427.753906 840.363281 421.375 840.984375 414.898438 C 841.023438 414.539062 841.066406 414.1875 841.101562 413.824219 C 841.710938 407.28125 842.214844 400.636719 842.65625 393.941406 C 842.699219 393.210938 842.773438 392.511719 842.820312 391.785156 L 842.835938 391.777344 L 842.835938 391.765625 C 844.625 390.484375 846.363281 389.207031 848.125 387.917969 C 849.519531 386.910156 850.929688 385.898438 852.3125 384.882812 C 855.46875 382.542969 858.578125 380.191406 861.667969 377.84375 C 862.125 377.492188 862.597656 377.152344 863.054688 376.796875 C 866.664062 374.019531 870.214844 371.230469 873.707031 368.429688 C 874.390625 367.867188 875.050781 367.3125 875.734375 366.757812 C 878.453125 364.566406 881.136719 362.355469 883.773438 360.144531 C 884.949219 359.164062 886.089844 358.175781 887.25 357.1875 C 889.339844 355.40625 891.414062 353.625 893.441406 351.835938 C 894.792969 350.664062 896.101562 349.472656 897.425781 348.296875 C 899.214844 346.691406 900.992188 345.09375 902.738281 343.484375 C 904.140625 342.199219 905.523438 340.90625 906.894531 339.613281 C 908.5 338.101562 910.085938 336.601562 911.648438 335.085938 C 913.066406 333.71875 914.480469 332.347656 915.867188 330.976562 C 916.429688 330.417969 917.023438 329.871094 917.585938 329.304688 C 931 342.164062 942.617188 355.089844 952.0625 367.585938 C 938.070312 378.101562 933.753906 397.601562 942.671875 413.15625 Z M 730.859375 609.867188 C 709.101562 610.671875 686.292969 592.238281 666.640625 557.953125 C 656.265625 539.859375 647.042969 518.015625 639.179688 492.945312 C 642.332031 492.023438 645.542969 490.933594 648.71875 489.929688 C 651.566406 489.035156 654.402344 488.1875 657.261719 487.230469 C 662.457031 485.507812 667.699219 483.628906 672.945312 481.726562 C 675.234375 480.886719 677.5 480.128906 679.796875 479.265625 C 687.40625 476.390625 695.058594 473.355469 702.75 470.109375 C 703.066406 469.976562 703.390625 469.820312 703.710938 469.6875 C 710.476562 466.820312 717.269531 463.828125 724.082031 460.675781 L 724.097656 460.679688 L 724.117188 460.667969 C 726.742188 461.71875 729.351562 462.707031 731.964844 463.714844 C 732.738281 464.007812 733.511719 464.3125 734.277344 464.609375 C 742.550781 467.746094 750.773438 470.691406 758.925781 473.425781 C 759.832031 473.730469 760.734375 474.019531 761.632812 474.3125 C 764.707031 475.328125 767.769531 476.320312 770.824219 477.289062 C 772.230469 477.722656 773.636719 478.144531 775.039062 478.570312 C 777.582031 479.34375 780.117188 480.105469 782.644531 480.851562 C 784.203125 481.296875 785.746094 481.730469 787.296875 482.167969 C 789.683594 482.839844 792.066406 483.496094 794.4375 484.132812 C 796.007812 484.554688 797.566406 484.964844 799.125 485.363281 C 801.515625 485.992188 803.894531 486.578125 806.273438 487.15625 C 807.746094 487.519531 809.210938 487.871094 810.671875 488.21875 C 811.523438 488.417969 812.386719 488.636719 813.234375 488.832031 C 795.449219 562.472656 764.195312 608.617188 730.859375 609.867188 Z M 471.996094 466.289062 C 466.714844 457.078125 465.421875 445.699219 467.71875 432.769531 C 475.902344 434.511719 484.722656 433.398438 492.558594 428.902344 C 509.40625 419.246094 515.253906 397.753906 505.601562 380.914062 C 503.472656 377.199219 500.753906 374.0625 497.652344 371.472656 C 505.132812 361.308594 513.828125 350.835938 523.851562 340.128906 C 524.542969 340.75 525.273438 341.363281 525.976562 341.988281 C 527.28125 343.140625 528.601562 344.289062 529.9375 345.445312 C 531.765625 347.035156 533.625 348.613281 535.5 350.195312 C 536.832031 351.320312 538.175781 352.433594 539.53125 353.554688 C 541.484375 355.164062 543.472656 356.761719 545.472656 358.367188 C 546.816406 359.445312 548.148438 360.515625 549.515625 361.589844 C 551.640625 363.265625 553.816406 364.921875 555.988281 366.582031 C 557.277344 367.566406 558.550781 368.546875 559.859375 369.527344 C 562.367188 371.410156 564.929688 373.277344 567.492188 375.132812 C 568.53125 375.878906 569.53125 376.636719 570.574219 377.378906 C 574.179688 379.964844 577.839844 382.519531 581.570312 385.074219 C 582.488281 385.703125 583.4375 386.316406 584.359375 386.941406 C 587.199219 388.859375 590.054688 390.773438 592.957031 392.679688 C 594.46875 393.671875 596.027344 394.65625 597.570312 395.640625 C 599.40625 396.824219 601.222656 398.019531 603.09375 399.195312 L 603.101562 399.214844 L 603.117188 399.226562 C 603.199219 399.835938 603.304688 400.425781 603.386719 401.03125 C 604.292969 407.714844 605.265625 414.316406 606.347656 420.824219 C 606.375 421.003906 606.40625 421.183594 606.4375 421.371094 C 607.523438 427.851562 608.710938 434.234375 609.957031 440.539062 C 610.117188 441.304688 610.25 442.070312 610.40625 442.828125 C 611.644531 448.9375 612.96875 454.9375 614.363281 460.859375 C 614.613281 461.898438 614.859375 462.933594 615.105469 463.96875 C 616.503906 469.777344 617.976562 475.492188 619.527344 481.101562 C 619.632812 481.464844 619.71875 481.859375 619.820312 482.21875 C 545.078125 501.519531 488.792969 495.59375 471.996094 466.289062 Z M 464.734375 195.34375 C 479.734375 165.558594 534.703125 156.359375 609.0625 170.832031 C 608.964844 171.296875 608.886719 171.792969 608.796875 172.261719 C 607.652344 177.863281 606.589844 183.570312 605.613281 189.367188 C 605.40625 190.601562 605.199219 191.839844 605 193.082031 C 604.03125 199.039062 603.128906 205.058594 602.332031 211.191406 C 602.207031 212.078125 602.105469 212.988281 601.992188 213.886719 C 601.195312 220.207031 600.46875 226.59375 599.851562 233.085938 C 599.820312 233.363281 599.785156 233.644531 599.761719 233.933594 C 599.140625 240.546875 598.632812 247.269531 598.203125 254.058594 C 598.15625 254.703125 598.089844 255.328125 598.046875 255.980469 L 598.039062 255.984375 L 598.039062 256.007812 C 596.289062 257.253906 594.585938 258.511719 592.855469 259.773438 C 591.421875 260.8125 589.976562 261.84375 588.554688 262.882812 C 585.292969 265.289062 582.085938 267.707031 578.914062 270.128906 C 578.5625 270.402344 578.203125 270.664062 577.847656 270.933594 C 574.199219 273.738281 570.609375 276.558594 567.085938 279.390625 C 566.65625 279.746094 566.226562 280.09375 565.796875 280.449219 C 562.804688 282.867188 559.851562 285.289062 556.949219 287.726562 C 556.015625 288.507812 555.113281 289.300781 554.1875 290.078125 C 551.820312 292.09375 549.46875 294.113281 547.167969 296.140625 C 546.113281 297.074219 545.066406 298.007812 544.023438 298.933594 C 541.890625 300.835938 539.785156 302.746094 537.703125 304.660156 C 536.644531 305.632812 535.601562 306.609375 534.558594 307.589844 C 532.507812 309.507812 530.484375 311.4375 528.496094 313.371094 C 527.542969 314.292969 526.597656 315.207031 525.660156 316.132812 C 524.871094 316.910156 524.054688 317.6875 523.277344 318.457031 C 502.148438 298.203125 485.445312 277.800781 474.746094 259.140625 C 464.503906 241.28125 454.464844 215.730469 464.734375 195.34375 Z M 906.140625 318.777344 C 905.753906 319.164062 905.382812 319.550781 904.988281 319.9375 C 901.046875 323.839844 896.992188 327.710938 892.800781 331.585938 C 891.980469 332.335938 891.136719 333.078125 890.316406 333.835938 C 886.523438 337.285156 882.636719 340.714844 878.652344 344.140625 C 877.765625 344.898438 876.894531 345.667969 875.996094 346.433594 C 871.4375 350.296875 866.753906 354.132812 861.957031 357.953125 C 860.929688 358.769531 859.882812 359.574219 858.847656 360.386719 C 854.375 363.910156 849.808594 367.410156 845.136719 370.886719 C 844.675781 371.222656 844.234375 371.570312 843.773438 371.914062 C 843.777344 371.785156 843.773438 371.671875 843.78125 371.542969 C 844.042969 363.777344 844.144531 355.992188 844.160156 348.199219 C 844.167969 346.402344 844.160156 344.601562 844.152344 342.792969 C 844.117188 334.957031 844.003906 327.117188 843.714844 319.308594 C 843.441406 311.78125 843.011719 304.253906 842.507812 296.726562 C 842.378906 294.855469 842.25 293 842.113281 291.144531 C 841.550781 283.621094 840.917969 276.117188 840.132812 268.652344 C 840.128906 268.621094 840.132812 268.59375 840.128906 268.5625 C 840.664062 268.914062 841.183594 269.28125 841.71875 269.625 C 846.554688 272.816406 851.277344 276.035156 855.921875 279.28125 C 857.035156 280.058594 858.164062 280.839844 859.269531 281.621094 C 864.316406 285.199219 869.265625 288.8125 874.085938 292.464844 C 875.015625 293.171875 875.921875 293.878906 876.847656 294.59375 C 881.179688 297.910156 885.402344 301.246094 889.53125 304.613281 C 890.269531 305.21875 891.03125 305.824219 891.769531 306.425781 C 896.335938 310.195312 900.765625 313.996094 905.070312 317.816406 C 905.433594 318.140625 905.78125 318.457031 906.140625 318.777344 Z M 816.601562 473.660156 C 816.070312 473.539062 815.542969 473.429688 815.007812 473.308594 C 809.847656 472.105469 804.652344 470.816406 799.410156 469.429688 C 798.578125 469.207031 797.738281 468.96875 796.898438 468.738281 C 792.175781 467.453125 787.421875 466.097656 782.636719 464.667969 C 781.46875 464.3125 780.3125 463.976562 779.144531 463.617188 C 773.703125 461.953125 768.21875 460.195312 762.707031 458.335938 C 761.902344 458.066406 761.085938 457.769531 760.273438 457.496094 C 755.328125 455.804688 750.359375 454.027344 745.363281 452.1875 C 744.683594 451.933594 744 451.683594 743.316406 451.429688 C 744.152344 451.019531 744.976562 450.5625 745.808594 450.140625 C 750.507812 447.777344 755.183594 445.351562 759.863281 442.871094 C 761.5 442.003906 763.125 441.140625 764.761719 440.257812 C 770.449219 437.183594 776.125 434.066406 781.742188 430.84375 C 788.484375 426.980469 795.160156 422.964844 801.785156 418.886719 C 803.449219 417.859375 805.105469 416.835938 806.757812 415.804688 C 813.253906 411.734375 819.703125 407.601562 826.035156 403.363281 C 826.171875 403.265625 826.316406 403.183594 826.453125 403.089844 C 826.390625 403.847656 826.324219 404.605469 826.257812 405.367188 C 825.871094 410.011719 825.4375 414.613281 824.960938 419.175781 C 824.84375 420.300781 824.734375 421.4375 824.605469 422.558594 C 824.027344 427.800781 823.382812 432.984375 822.683594 438.101562 C 822.511719 439.335938 822.324219 440.542969 822.15625 441.769531 C 821.53125 446.097656 820.867188 450.382812 820.160156 454.617188 C 819.980469 455.675781 819.816406 456.75 819.628906 457.808594 C 818.773438 462.730469 817.855469 467.5625 816.882812 472.335938 C 816.789062 472.78125 816.691406 473.214844 816.601562 473.660156 Z M 634.417969 476.734375 C 633.140625 472.097656 631.902344 467.390625 630.726562 462.609375 C 630.488281 461.628906 630.261719 460.628906 630.023438 459.640625 C 629.03125 455.503906 628.078125 451.316406 627.160156 447.089844 C 626.902344 445.910156 626.648438 444.726562 626.390625 443.535156 C 625.34375 438.535156 624.347656 433.472656 623.40625 428.34375 C 623.230469 427.371094 623.070312 426.398438 622.898438 425.421875 C 622.117188 421.003906 621.371094 416.546875 620.664062 412.039062 C 620.542969 411.25 620.417969 410.46875 620.296875 409.683594 C 620.320312 409.703125 620.339844 409.703125 620.363281 409.71875 C 626.792969 413.515625 633.308594 417.195312 639.871094 420.8125 C 641.59375 421.761719 643.316406 422.699219 645.046875 423.636719 C 651.640625 427.207031 658.261719 430.710938 664.9375 434.074219 C 670.714844 436.976562 676.566406 439.78125 682.449219 442.558594 C 684.03125 443.300781 685.617188 444.03125 687.203125 444.765625 C 692.082031 447.019531 696.988281 449.222656 701.914062 451.375 C 702.726562 451.726562 703.519531 452.109375 704.324219 452.457031 C 702.796875 453.125 701.253906 453.851562 699.726562 454.507812 C 697.578125 455.417969 695.4375 456.316406 693.300781 457.207031 C 687.894531 459.445312 682.519531 461.589844 677.160156 463.636719 C 675.34375 464.328125 673.527344 465.066406 671.714844 465.734375 C 664.714844 468.339844 657.761719 470.796875 650.863281 473.058594 C 649.703125 473.4375 648.554688 473.765625 647.398438 474.140625 C 643.15625 475.503906 638.964844 476.722656 634.769531 477.957031 C 634.648438 477.546875 634.53125 477.148438 634.417969 476.734375 Z M 534.710938 328.992188 C 535.105469 328.601562 535.480469 328.203125 535.871094 327.820312 C 539.800781 323.933594 543.847656 320.066406 548.023438 316.210938 C 548.878906 315.417969 549.773438 314.628906 550.640625 313.847656 C 554.367188 310.449219 558.179688 307.074219 562.097656 303.714844 C 563.035156 302.90625 563.960938 302.09375 564.910156 301.28125 C 569.449219 297.433594 574.113281 293.613281 578.890625 289.808594 C 579.914062 289.003906 580.957031 288.191406 581.988281 287.382812 C 586.546875 283.792969 591.195312 280.226562 595.96875 276.691406 C 596.339844 276.414062 596.707031 276.136719 597.082031 275.859375 C 597.085938 275.9375 597.078125 276.011719 597.078125 276.085938 C 596.820312 283.804688 596.710938 291.570312 596.691406 299.339844 C 596.691406 301.246094 596.695312 303.140625 596.703125 305.046875 C 596.742188 312.847656 596.863281 320.660156 597.148438 328.46875 C 597.425781 336.042969 597.863281 343.640625 598.375 351.230469 C 598.492188 352.980469 598.613281 354.726562 598.746094 356.472656 C 599.304688 364.035156 599.941406 371.59375 600.730469 379.105469 C 600.734375 379.136719 600.734375 379.179688 600.738281 379.214844 C 600.25 378.890625 599.769531 378.566406 599.277344 378.242188 C 594.371094 375.003906 589.570312 371.730469 584.855469 368.433594 C 583.761719 367.664062 582.648438 366.902344 581.5625 366.128906 C 576.511719 362.546875 571.566406 358.929688 566.75 355.28125 C 565.78125 354.554688 564.847656 353.816406 563.890625 353.085938 C 559.625 349.8125 555.457031 346.523438 551.386719 343.199219 C 550.597656 342.554688 549.789062 341.917969 549.003906 341.273438 C 544.453125 337.519531 540.054688 333.738281 535.773438 329.941406 C 535.414062 329.621094 535.070312 329.304688 534.710938 328.992188 Z M 823.261719 257.886719 C 823.535156 260.136719 823.796875 262.394531 824.050781 264.65625 C 824.328125 267.097656 824.617188 269.527344 824.867188 271.972656 C 825.164062 274.863281 825.414062 277.757812 825.675781 280.65625 C 825.898438 283.089844 826.140625 285.519531 826.335938 287.960938 C 826.582031 291.039062 826.777344 294.125 826.992188 297.210938 C 827.140625 299.460938 827.320312 301.707031 827.445312 303.957031 C 827.757812 309.269531 828.019531 314.585938 828.207031 319.894531 C 828.40625 325.34375 828.535156 330.824219 828.613281 336.3125 C 828.636719 337.871094 828.621094 339.433594 828.632812 340.992188 C 828.660156 344.902344 828.6875 348.816406 828.648438 352.726562 C 828.632812 354.78125 828.578125 356.824219 828.539062 358.875 C 828.488281 362.269531 828.433594 365.664062 828.324219 369.046875 C 828.253906 371.40625 828.140625 373.757812 828.046875 376.109375 C 827.945312 378.546875 827.84375 380.972656 827.722656 383.402344 C 825.5 384.949219 823.257812 386.484375 821.003906 388.011719 C 819.328125 389.140625 817.671875 390.300781 815.976562 391.421875 C 813.128906 393.324219 810.234375 395.191406 807.339844 397.058594 C 805.621094 398.171875 803.910156 399.304688 802.167969 400.40625 C 799.054688 402.378906 795.90625 404.3125 792.765625 406.242188 C 791.230469 407.175781 789.71875 408.140625 788.175781 409.066406 C 783.488281 411.902344 778.765625 414.679688 774.023438 417.398438 C 766.097656 421.945312 758.070312 426.324219 750.007812 430.5625 C 749.519531 430.820312 749.035156 431.082031 748.550781 431.339844 C 740.765625 435.40625 732.933594 439.296875 725.101562 443.027344 C 724.617188 443.269531 724.128906 443.5 723.640625 443.734375 C 721.578125 442.882812 719.519531 442.027344 717.46875 441.167969 C 715.558594 440.363281 713.652344 439.578125 711.757812 438.757812 C 709.054688 437.597656 706.363281 436.390625 703.671875 435.199219 C 701.882812 434.402344 700.085938 433.621094 698.300781 432.816406 C 695.425781 431.515625 692.578125 430.171875 689.722656 428.832031 C 688.148438 428.09375 686.554688 427.371094 684.984375 426.621094 C 680.589844 424.515625 676.222656 422.386719 671.902344 420.210938 C 667.117188 417.800781 662.355469 415.335938 657.613281 412.816406 C 656.15625 412.042969 654.726562 411.242188 653.285156 410.453125 C 650.019531 408.699219 646.761719 406.941406 643.515625 405.128906 C 641.695312 404.113281 639.90625 403.0625 638.101562 402.03125 C 635.253906 400.410156 632.414062 398.792969 629.597656 397.132812 C 627.675781 396.003906 625.78125 394.847656 623.871094 393.707031 C 621.761719 392.441406 619.65625 391.175781 617.570312 389.886719 C 617.28125 387.535156 617.019531 385.171875 616.753906 382.8125 C 616.492188 380.5 616.21875 378.1875 615.976562 375.863281 C 615.65625 372.753906 615.382812 369.625 615.097656 366.503906 C 614.902344 364.300781 614.683594 362.109375 614.507812 359.910156 C 614.222656 356.367188 613.988281 352.808594 613.75 349.269531 C 613.632812 347.480469 613.488281 345.699219 613.386719 343.90625 C 613.070312 338.554688 612.808594 333.203125 612.617188 327.867188 C 612.414062 322.355469 612.28125 316.839844 612.207031 311.324219 C 612.1875 309.867188 612.203125 308.402344 612.195312 306.941406 C 612.167969 302.917969 612.144531 298.898438 612.175781 294.886719 C 612.191406 292.910156 612.246094 290.929688 612.28125 288.945312 C 612.339844 285.488281 612.398438 282.035156 612.503906 278.59375 C 612.582031 276.289062 612.691406 274.003906 612.785156 271.707031 C 612.878906 269.246094 612.988281 266.796875 613.109375 264.34375 C 614.925781 263.078125 616.769531 261.832031 618.601562 260.574219 C 620.746094 259.113281 622.875 257.636719 625.046875 256.199219 C 627.632812 254.476562 630.257812 252.789062 632.875 251.09375 C 634.824219 249.832031 636.75 248.542969 638.710938 247.304688 C 641.753906 245.375 644.828125 243.492188 647.898438 241.609375 C 649.484375 240.632812 651.054688 239.644531 652.652344 238.679688 C 657.339844 235.84375 662.058594 233.066406 666.804688 230.347656 C 673.925781 226.261719 681.175781 222.3125 688.484375 218.453125 C 688.785156 218.292969 689.09375 218.128906 689.402344 217.964844 C 700.382812 228.035156 717.042969 230.351562 730.683594 222.53125 C 734.601562 220.285156 737.894531 217.382812 740.566406 214.0625 C 741.183594 214.34375 741.808594 214.609375 742.425781 214.886719 C 745.132812 216.121094 747.824219 217.390625 750.519531 218.648438 C 752.265625 219.472656 754.019531 220.269531 755.765625 221.101562 C 760.171875 223.210938 764.566406 225.355469 768.921875 227.542969 C 773.730469 229.960938 778.519531 232.441406 783.273438 234.96875 C 784.722656 235.742188 786.148438 236.539062 787.59375 237.316406 C 790.871094 239.082031 794.136719 240.847656 797.378906 242.664062 C 799.21875 243.691406 801.027344 244.746094 802.855469 245.789062 C 805.664062 247.386719 808.484375 248.988281 811.265625 250.628906 C 813.195312 251.765625 815.101562 252.925781 817.019531 254.082031 C 819.117188 255.359375 821.195312 256.617188 823.261719 257.886719 Z M 680.574219 205.128906 C 679.105469 205.902344 677.640625 206.683594 676.175781 207.472656 C 670.441406 210.566406 664.734375 213.703125 659.113281 216.925781 C 652.355469 220.800781 645.671875 224.820312 639.035156 228.90625 C 637.402344 229.914062 635.773438 230.914062 634.148438 231.9375 C 627.589844 236.050781 621.074219 240.226562 614.675781 244.507812 C 614.582031 244.574219 614.488281 244.628906 614.402344 244.691406 C 614.464844 243.921875 614.53125 243.152344 614.59375 242.390625 C 614.984375 237.6875 615.421875 233.027344 615.90625 228.40625 C 616.015625 227.394531 616.113281 226.375 616.222656 225.363281 C 616.8125 220.046875 617.464844 214.792969 618.175781 209.601562 C 618.335938 208.464844 618.5 207.335938 618.664062 206.207031 C 619.296875 201.769531 619.976562 197.382812 620.710938 193.042969 C 620.875 192.046875 621.03125 191.03125 621.203125 190.042969 C 622.0625 185.089844 622.988281 180.222656 623.964844 175.402344 C 624.058594 174.972656 624.148438 174.535156 624.246094 174.097656 C 624.796875 174.226562 625.34375 174.339844 625.890625 174.46875 C 631.015625 175.664062 636.179688 176.9375 641.386719 178.320312 C 642.265625 178.554688 643.15625 178.808594 644.039062 179.050781 C 648.730469 180.320312 653.457031 181.671875 658.214844 183.101562 C 659.363281 183.449219 660.515625 183.78125 661.667969 184.136719 C 667.121094 185.808594 672.601562 187.558594 678.121094 189.421875 C 677.71875 194.660156 678.527344 200.023438 680.574219 205.128906 Z M 810.855469 188.21875 C 811.828125 192.289062 812.761719 196.402344 813.664062 200.570312 C 813.929688 201.8125 814.207031 203.050781 814.464844 204.304688 C 815.503906 209.265625 816.488281 214.269531 817.421875 219.359375 C 817.613281 220.40625 817.789062 221.480469 817.972656 222.539062 C 818.742188 226.871094 819.46875 231.242188 820.160156 235.660156 C 820.285156 236.472656 820.417969 237.277344 820.539062 238.097656 C 820.515625 238.082031 820.496094 238.074219 820.476562 238.0625 C 814.03125 234.253906 807.46875 230.554688 800.863281 226.910156 C 799.25 226.023438 797.640625 225.140625 796.023438 224.265625 C 789.363281 220.660156 782.667969 217.117188 775.90625 213.710938 C 770.078125 210.789062 764.191406 207.960938 758.304688 205.1875 C 756.722656 204.441406 755.136719 203.714844 753.546875 202.972656 C 751.492188 202.027344 749.449219 201.058594 747.394531 200.132812 C 748.15625 196.910156 748.46875 193.59375 748.308594 190.269531 C 753.433594 188.148438 758.535156 186.105469 763.617188 184.160156 C 765.492188 183.445312 767.367188 182.695312 769.234375 182 C 776.15625 179.429688 783.042969 177.003906 789.859375 174.761719 C 791.234375 174.3125 792.582031 173.917969 793.957031 173.484375 C 798.03125 172.175781 802.054688 170.996094 806.085938 169.824219 C 806.199219 170.234375 806.320312 170.636719 806.433594 171.046875 C 807.707031 175.671875 808.9375 180.363281 810.105469 185.125 C 810.371094 186.148438 810.605469 187.1875 810.855469 188.21875 Z M 810.855469 188.21875 " fill-opacity="1" fill-rule="nonzero"/></g></g></g></svg>