<svg viewBox="0 0 569 604" fill="none" xmlns="http://www.w3.org/2000/svg">
<path d="M479.559 292.022L479.649 291.924L479.548 291.835C535.583 227.194 554.614 170.456 531.544 135.51C518.591 115.878 493.255 105.503 458.298 105.503C435.044 105.503 408.192 109.983 378.474 118.729L378.454 118.624L378.321 118.667C373.575 103.206 368.309 89.1041 362.583 76.4556C368.688 70.1275 372.466 61.5259 372.466 52.0377C372.466 32.5845 356.739 16.8345 337.302 16.8345C332.677 16.8345 328.274 17.7525 324.231 19.3736C310.419 6.7525 295.485 0.0845337 279.942 0.0845337C238.204 0.0845337 200.212 49.3502 177.544 132.299L177.481 132.284L177.458 132.37C150.532 126.417 125.708 123.374 103.614 123.374C57.3993 123.374 26.0478 136.581 12.9188 161.573C-6.54209 198.663 18.0829 253.225 80.3251 311.909L80.2353 312.006L80.3329 312.096C24.2821 376.729 5.24697 433.479 28.3095 468.424C34.8876 478.385 44.6688 485.944 57.2509 490.999C59.8681 507.838 74.3837 520.756 91.954 520.756C107.36 520.756 120.423 510.811 125.177 497.003C142.45 495.077 161.243 491.135 181.38 485.21L181.419 485.319L181.544 485.284C204.716 560.69 240.329 603.831 279.938 603.831C321.673 603.831 359.661 554.573 382.298 471.639L382.364 471.651L382.388 471.561C409.313 477.503 434.142 480.549 456.235 480.549H456.247C502.458 480.549 533.825 467.342 546.942 442.358C566.391 405.276 541.774 350.717 479.559 292.022ZM533.227 435.147C523.095 454.428 495.759 465.042 456.243 465.042C435.384 465.038 411.845 462.178 386.177 456.542C386.911 453.467 387.536 450.264 388.231 447.143C388.915 444.061 389.622 441.014 390.251 437.881C391.278 432.838 392.192 427.682 393.095 422.518C393.575 419.784 394.11 417.104 394.548 414.338C395.501 408.456 396.313 402.452 397.106 396.424C397.368 396.424 397.622 396.463 397.88 396.463C417.317 396.463 433.059 380.702 433.059 361.28C433.059 354.784 431.27 348.721 428.204 343.506C428.321 343.401 428.438 343.292 428.556 343.194C429.907 341.987 431.227 340.768 432.571 339.557C434.341 337.967 436.114 336.37 437.849 334.764C439.251 333.467 440.622 332.167 442.001 330.866C443.63 329.331 445.251 327.803 446.845 326.268C448.212 324.952 449.556 323.635 450.903 322.315C452.477 320.772 454.044 319.221 455.587 317.667C456.872 316.37 458.145 315.081 459.415 313.776C460.977 312.17 462.52 310.565 464.059 308.952C465.243 307.71 466.423 306.46 467.587 305.217C468.118 304.643 468.684 304.065 469.212 303.495C524.235 355.545 548.72 405.608 533.227 435.147ZM279.942 588.311C248.02 588.311 217.005 548.21 196.263 480.592C197.286 480.253 198.329 479.87 199.36 479.522C200.743 479.053 202.138 478.565 203.54 478.085C206.067 477.198 208.599 476.292 211.142 475.358C212.622 474.815 214.106 474.264 215.599 473.71C218.099 472.76 220.614 471.784 223.134 470.788C224.642 470.194 226.138 469.608 227.649 468.999C230.227 467.952 232.821 466.866 235.403 465.772C236.852 465.159 238.302 464.565 239.743 463.94C242.645 462.686 245.567 461.381 248.47 460.069C249.614 459.557 250.751 459.065 251.888 458.542C255.903 456.698 259.927 454.803 263.974 452.846C265.169 452.272 266.364 451.651 267.563 451.069C270.423 449.667 273.282 448.249 276.153 446.792C277.95 445.874 279.755 444.924 281.552 443.987C283.325 443.061 285.102 442.163 286.892 441.21L286.907 441.213L286.923 441.21C287.493 441.44 288.063 441.647 288.634 441.881C294.892 444.417 301.114 446.866 307.309 449.167C307.446 449.217 307.591 449.264 307.727 449.315C313.907 451.604 320.044 453.756 326.153 455.815C326.903 456.069 327.661 456.338 328.415 456.588C334.298 458.545 340.142 460.37 345.946 462.1C346.997 462.417 348.048 462.729 349.114 463.038C354.841 464.702 360.524 466.268 366.157 467.713C366.509 467.803 366.884 467.92 367.231 468.01C346.833 542.424 313.7 588.311 279.942 588.311ZM91.954 450.378C76.3642 450.378 63.161 460.534 58.5517 474.596C51.6415 471.159 45.5751 466.417 41.2431 459.874C22.872 432.042 42.2274 379.776 91.786 322.471C92.0126 322.67 92.2665 322.866 92.4853 323.069C96.9813 327.026 101.61 330.96 106.368 334.87C107.149 335.522 107.954 336.167 108.743 336.811C113.524 340.702 118.415 344.561 123.446 348.393C124.114 348.901 124.794 349.397 125.462 349.905C130.532 353.733 135.704 357.53 141.013 361.292C141.309 361.503 141.587 361.713 141.892 361.924C147.259 365.71 152.774 369.448 158.368 373.163C158.974 373.565 159.544 373.979 160.153 374.381V374.397L160.165 374.401C160.384 376.592 160.63 378.733 160.872 380.905C161.052 382.616 161.227 384.342 161.423 386.045C161.88 389.948 162.372 393.819 162.876 397.663C162.954 398.233 163.013 398.815 163.091 399.389C163.704 403.901 164.36 408.366 165.052 412.788C165.2 413.663 165.356 414.514 165.497 415.381C166.048 418.831 166.63 422.26 167.235 425.643C167.501 427.151 167.79 428.635 168.071 430.131C168.579 432.831 169.091 435.518 169.638 438.167C169.981 439.917 170.36 441.647 170.724 443.381C171.227 445.733 171.727 448.069 172.259 450.381C172.677 452.241 173.11 454.081 173.548 455.917C174.059 458.057 174.575 460.182 175.114 462.292C175.595 464.202 176.079 466.112 176.575 467.995C176.782 468.76 176.962 469.549 177.173 470.315C159.345 475.561 142.356 479.21 126.813 481.19C124.653 463.819 109.884 450.378 91.954 450.378ZM26.6415 168.784C36.7626 149.503 64.0946 138.885 103.614 138.885C124.474 138.885 148.013 141.749 173.669 147.393C172.903 150.588 172.251 153.917 171.544 157.17C170.903 160.085 170.227 162.967 169.638 165.924C168.548 171.292 167.571 176.772 166.614 182.268C166.2 184.67 165.731 187.014 165.337 189.436C164.048 197.467 162.876 205.616 161.864 213.905C161.825 214.245 161.798 214.604 161.755 214.948C160.876 222.241 160.095 229.624 159.438 237.104L159.431 237.116V237.135C157.216 238.893 155.056 240.663 152.884 242.432C152.247 242.956 151.595 243.471 150.954 243.991C144.122 249.612 137.477 255.276 131.048 260.991C130.333 261.624 129.638 262.264 128.934 262.901C126.524 265.057 124.142 267.221 121.782 269.389C120.704 270.397 119.642 271.405 118.575 272.413C116.638 274.233 114.716 276.053 112.813 277.878C111.649 279.003 110.509 280.131 109.356 281.256C107.583 282.995 105.829 284.733 104.102 286.475C102.954 287.628 101.821 288.776 100.7 289.928C98.9696 291.69 97.2782 293.463 95.5907 295.241C94.5438 296.335 93.5087 297.432 92.4813 298.526C91.8837 299.167 91.2665 299.807 90.6728 300.448C35.6298 248.389 11.1415 198.323 26.6415 168.784ZM279.942 15.608C290.563 15.608 301.079 20.147 311.153 28.5689C305.571 34.8033 302.149 43.0064 302.149 52.0455C302.149 71.4595 317.888 87.2252 337.298 87.2252C341.579 87.2252 345.653 86.4244 349.442 85.0259C354.54 96.5689 359.302 109.323 363.606 123.342C362.724 123.635 361.829 123.963 360.934 124.264C359.286 124.819 357.634 125.397 355.966 125.979C353.677 126.776 351.384 127.6 349.079 128.444C347.442 129.042 345.806 129.651 344.157 130.268C341.79 131.163 339.415 132.092 337.028 133.03C335.427 133.659 333.833 134.284 332.224 134.936C329.712 135.944 327.196 137.006 324.673 138.065C323.177 138.698 321.692 139.315 320.192 139.96C317.309 141.198 314.419 142.495 311.532 143.795C310.368 144.327 309.212 144.815 308.048 145.35C304.017 147.194 299.977 149.096 295.907 151.065C294.903 151.545 293.899 152.065 292.899 152.557C289.825 154.065 286.743 155.588 283.645 157.159C282.032 157.979 280.403 158.842 278.782 159.69C276.841 160.694 274.899 161.678 272.95 162.713L272.931 162.71L272.915 162.721C272.341 162.487 271.778 162.288 271.212 162.053C264.962 159.518 258.751 157.081 252.567 154.78C252.399 154.713 252.231 154.651 252.052 154.588C245.888 152.303 239.759 150.159 233.669 148.108C232.927 147.866 232.196 147.6 231.462 147.358C225.548 145.393 219.677 143.557 213.849 141.823C212.821 141.522 211.802 141.221 210.782 140.917C205.048 139.245 199.36 137.678 193.72 136.237C193.352 136.147 192.97 136.026 192.602 135.936C213.032 61.4908 246.165 15.608 279.942 15.608ZM518.618 144.065C536.997 171.893 517.638 224.159 468.099 281.467C467.743 281.151 467.352 280.838 466.993 280.526C462.7 276.749 458.278 272.987 453.735 269.26C452.77 268.463 451.798 267.67 450.817 266.878C446.13 263.073 441.356 259.295 436.434 255.557C435.727 255.006 434.985 254.467 434.263 253.92C429.177 250.085 423.997 246.284 418.673 242.514C418.446 242.35 418.22 242.182 417.981 242.018C412.552 238.186 406.97 234.405 401.298 230.655C400.759 230.295 400.251 229.924 399.708 229.565V229.553L399.688 229.542C399.477 227.405 399.231 225.299 399.001 223.174C398.809 221.413 398.634 219.643 398.438 217.893C397.974 213.87 397.474 209.885 396.95 205.928C396.884 205.487 396.837 205.042 396.778 204.604C396.161 200.045 395.501 195.526 394.798 191.061C394.704 190.51 394.614 189.967 394.517 189.417C393.911 185.616 393.274 181.85 392.602 178.12C392.392 176.92 392.153 175.745 391.938 174.553C391.368 171.499 390.786 168.456 390.173 165.448C389.888 164.069 389.595 162.698 389.309 161.335C388.724 158.534 388.11 155.756 387.485 153.003C387.169 151.6 386.841 150.21 386.509 148.815C385.864 146.081 385.2 143.366 384.513 140.678C384.184 139.393 383.86 138.12 383.524 136.842C383.243 135.776 382.974 134.682 382.692 133.624C410.77 125.366 436.778 121.022 458.286 121.022C478.876 121.014 506.036 125.014 518.618 144.065ZM192.001 465.624C191.856 465.096 191.704 464.581 191.567 464.049C190.142 458.69 188.798 453.245 187.524 447.678C187.282 446.596 187.052 445.495 186.806 444.405C185.7 439.401 184.657 434.319 183.665 429.163C183.45 428.014 183.216 426.878 183.001 425.717C181.915 419.842 180.915 413.87 179.985 407.803C179.79 406.51 179.61 405.202 179.419 403.901C178.591 398.268 177.825 392.565 177.13 386.78C177.067 386.213 176.989 385.659 176.919 385.088C177.024 385.155 177.126 385.21 177.239 385.28C183.845 389.37 190.548 393.331 197.298 397.217C198.856 398.12 200.423 399.006 201.993 399.901C208.809 403.768 215.665 407.565 222.587 411.202C229.251 414.71 235.997 418.081 242.778 421.385C244.466 422.206 246.142 423.014 247.817 423.819C254.626 427.073 261.45 430.256 268.313 433.288C268.341 433.299 268.368 433.315 268.395 433.327C267.821 433.616 267.247 433.885 266.681 434.178C261.505 436.788 256.368 439.284 251.239 441.702C250.017 442.276 248.774 442.87 247.548 443.44C241.931 446.038 236.333 448.538 230.767 450.901C229.696 451.354 228.626 451.792 227.548 452.241C222.517 454.346 217.52 456.35 212.548 458.26C211.653 458.6 210.751 458.96 209.864 459.295C204.321 461.385 198.821 463.338 193.364 465.174C192.903 465.327 192.454 465.471 192.001 465.624ZM102.161 310.909C102.532 310.506 102.892 310.108 103.259 309.706C106.872 305.827 110.571 301.96 114.384 298.104C114.989 297.487 115.614 296.881 116.231 296.268C119.692 292.807 123.235 289.358 126.856 285.917C127.743 285.081 128.61 284.245 129.505 283.409C133.653 279.518 137.903 275.635 142.259 271.776C142.895 271.21 143.559 270.651 144.2 270.085C148.126 266.635 152.138 263.206 156.22 259.788C156.782 259.323 157.337 258.854 157.895 258.385C157.837 259.319 157.821 260.26 157.774 261.19C157.489 266.444 157.267 271.71 157.091 276.999C157.028 278.85 156.97 280.69 156.923 282.549C156.759 289.014 156.642 295.487 156.642 301.963C156.642 309.737 156.806 317.522 157.052 325.299C157.114 327.253 157.177 329.198 157.251 331.147C157.552 338.807 157.927 346.456 158.458 354.061C158.474 354.225 158.474 354.393 158.489 354.557C157.86 354.124 157.235 353.69 156.606 353.256C152.767 350.612 148.993 347.944 145.274 345.26C144.352 344.6 143.423 343.94 142.513 343.272C138.255 340.163 134.079 337.026 129.985 333.87C129.001 333.108 128.048 332.346 127.067 331.592C123.622 328.897 120.231 326.19 116.915 323.471C116.083 322.788 115.231 322.112 114.407 321.424C110.563 318.233 106.829 315.03 103.169 311.815C102.833 311.514 102.505 311.213 102.161 310.909ZM190.102 151.323C194.759 152.526 199.458 153.788 204.192 155.151C205.165 155.428 206.142 155.733 207.118 156.018C211.2 157.213 215.306 158.467 219.431 159.772C220.583 160.139 221.735 160.503 222.899 160.874C227.755 162.452 232.645 164.104 237.559 165.842C238.493 166.17 239.415 166.518 240.345 166.85C244.571 168.37 248.809 169.94 253.071 171.569C253.813 171.858 254.556 172.135 255.294 172.424C255.27 172.432 255.259 172.448 255.231 172.463C248.739 176.151 242.309 179.979 235.907 183.87C234.224 184.893 232.556 185.917 230.88 186.956C224.505 190.901 218.173 194.901 211.934 199.022C206.544 202.588 201.2 206.272 195.864 209.995C194.434 210.995 193.009 212.01 191.583 213.022C187.2 216.131 182.852 219.292 178.532 222.495C177.825 223.026 177.099 223.522 176.395 224.045C176.575 222.389 176.716 220.694 176.903 219.042C177.184 216.725 177.47 214.417 177.759 212.124C178.505 206.319 179.321 200.588 180.208 194.924C180.509 193.003 180.774 191.061 181.095 189.155C182.317 181.788 183.645 174.534 185.114 167.424C185.36 166.229 185.645 165.069 185.895 163.878C186.825 159.518 187.852 155.276 188.868 151.022C189.282 151.124 189.684 151.217 190.102 151.323ZM367.864 138.303C368.009 138.838 368.165 139.362 368.306 139.893C369.72 145.233 371.063 150.667 372.333 156.206C372.595 157.346 372.833 158.514 373.083 159.655C374.177 164.577 375.208 169.565 376.177 174.635C376.407 175.85 376.657 177.057 376.888 178.284C377.966 184.135 378.962 190.081 379.888 196.12C380.075 197.409 380.263 198.717 380.45 200.01C381.298 205.753 382.079 211.561 382.77 217.46C382.829 217.92 382.888 218.374 382.942 218.842C382.872 218.803 382.809 218.76 382.747 218.725C376.181 214.663 369.493 210.706 362.767 206.823C361.11 205.874 359.466 204.936 357.806 203.995C351.02 200.151 344.184 196.366 337.267 192.733C330.556 189.206 323.747 185.807 316.907 182.475C315.333 181.706 313.759 180.944 312.177 180.19C305.337 176.913 298.466 173.71 291.556 170.655C291.524 170.643 291.489 170.624 291.458 170.608C291.981 170.342 292.505 170.088 293.028 169.827C298.274 167.178 303.505 164.639 308.712 162.19C309.919 161.624 311.138 161.038 312.349 160.483C317.966 157.878 323.563 155.385 329.126 153.022C330.235 152.545 331.341 152.1 332.45 151.635C337.415 149.561 342.341 147.585 347.243 145.706C348.196 145.342 349.153 144.956 350.106 144.596C355.622 142.514 361.091 140.581 366.513 138.753C366.974 138.6 367.415 138.46 367.864 138.303ZM286.044 424.003C283.954 423.12 281.868 422.225 279.778 421.323C277.524 420.35 275.27 419.389 273.024 418.389C270.372 417.21 267.731 415.991 265.091 414.772C262.872 413.756 260.638 412.756 258.423 411.713C255.634 410.397 252.86 409.034 250.071 407.682C248.048 406.694 246.009 405.729 243.993 404.721C239.231 402.35 234.489 399.932 229.79 397.456C224.966 394.917 220.145 392.303 215.345 389.643C213.981 388.885 212.634 388.096 211.274 387.331C207.868 385.409 204.462 383.491 201.087 381.51C199.313 380.475 197.567 379.413 195.806 378.358C192.888 376.624 189.97 374.889 187.091 373.112C185.075 371.878 183.095 370.608 181.102 369.358C179.036 368.057 176.985 366.76 174.934 365.448C174.7 362.753 174.481 360.042 174.278 357.331C174.13 355.315 173.95 353.299 173.817 351.272C173.583 347.854 173.403 344.417 173.224 340.975C173.114 338.928 172.981 336.881 172.892 334.823C172.727 331.139 172.618 327.448 172.505 323.76C172.458 321.967 172.376 320.174 172.337 318.374C172.212 312.901 172.145 307.42 172.145 301.956C172.145 292.819 172.337 283.674 172.669 274.569C172.692 274.022 172.7 273.471 172.724 272.92C173.067 264.143 173.583 255.413 174.247 246.764C174.278 246.225 174.321 245.686 174.356 245.143C176.122 243.78 177.888 242.42 179.653 241.065C181.302 239.811 182.931 238.549 184.583 237.311C186.938 235.542 189.321 233.807 191.696 232.065C193.274 230.909 194.845 229.741 196.431 228.592C198.989 226.745 201.575 224.94 204.153 223.131C205.579 222.131 206.997 221.112 208.431 220.12C212.442 217.354 216.458 214.624 220.497 211.96C224.97 209.006 229.474 206.1 234.02 203.241C235.415 202.362 236.821 201.518 238.22 200.659C241.368 198.702 244.513 196.749 247.7 194.835C249.485 193.76 251.29 192.729 253.079 191.674C255.903 190.014 258.716 188.35 261.559 186.733C263.493 185.628 265.438 184.557 267.38 183.467C269.524 182.268 271.673 181.073 273.829 179.905C276.013 180.823 278.188 181.772 280.372 182.713C282.509 183.639 284.649 184.549 286.782 185.495C289.645 186.764 292.493 188.081 295.341 189.389C297.349 190.315 299.36 191.213 301.356 192.155C304.571 193.67 307.774 195.233 310.962 196.792C312.575 197.577 314.192 198.338 315.798 199.143C320.599 201.53 325.372 203.963 330.099 206.452C334.977 209.018 339.829 211.647 344.649 214.323C345.923 215.03 347.188 215.772 348.462 216.491C351.966 218.471 355.466 220.448 358.927 222.471C360.634 223.471 362.325 224.503 364.028 225.518C366.997 227.292 369.966 229.057 372.899 230.862C374.86 232.073 376.79 233.303 378.735 234.526C380.821 235.835 382.895 237.147 384.962 238.475C385.157 240.678 385.321 242.897 385.501 245.112C385.7 247.702 385.923 250.284 386.091 252.881C386.298 255.979 386.458 259.096 386.626 262.213C386.751 264.53 386.911 266.842 387.013 269.159C387.169 272.756 387.274 276.358 387.38 279.96C387.438 281.823 387.52 283.674 387.559 285.542C387.688 291.018 387.751 296.495 387.751 301.963C387.751 310.174 387.571 318.428 387.286 326.686C387.274 327.03 387.267 327.381 387.255 327.729C373.056 332.249 362.759 345.545 362.759 361.268C362.759 365.788 363.642 370.088 365.192 374.057C364.642 374.456 364.102 374.862 363.552 375.256C361.138 376.995 358.696 378.698 356.263 380.413C354.681 381.518 353.118 382.643 351.528 383.745C347.505 386.514 343.462 389.26 339.395 391.956C334.907 394.924 330.372 397.842 325.817 400.71C324.427 401.585 323.024 402.424 321.63 403.292C318.47 405.256 315.313 407.213 312.126 409.124C310.317 410.206 308.505 411.249 306.692 412.319C303.903 413.956 301.114 415.608 298.306 417.206C296.36 418.315 294.407 419.389 292.45 420.479C290.298 421.667 288.173 422.846 286.044 424.003ZM402.778 326.456C402.837 324.792 402.892 323.135 402.934 321.471C403.102 314.96 403.22 308.444 403.22 301.963C403.22 294.178 403.056 286.378 402.809 278.592C402.747 276.67 402.688 274.76 402.61 272.842C402.306 265.104 401.923 257.378 401.388 249.694C401.38 249.585 401.38 249.471 401.368 249.366C402.001 249.807 402.638 250.245 403.267 250.678C407.157 253.354 410.977 256.053 414.747 258.772C415.571 259.37 416.407 259.963 417.231 260.561C421.552 263.713 425.782 266.893 429.934 270.096C430.837 270.799 431.735 271.503 432.634 272.206C436.173 274.963 439.638 277.733 443.036 280.526C443.821 281.167 444.622 281.807 445.395 282.448C449.263 285.655 453.028 288.881 456.724 292.124C457.052 292.42 457.384 292.717 457.716 293.018C457.329 293.432 456.962 293.85 456.575 294.26C452.989 298.112 449.317 301.96 445.528 305.788C444.888 306.436 444.22 307.081 443.575 307.725C440.142 311.163 436.614 314.592 433.009 318.01C432.138 318.835 431.274 319.667 430.392 320.491C426.231 324.389 421.989 328.272 417.626 332.135C413.282 329.182 408.227 327.217 402.778 326.456ZM352.657 447.889C348.642 446.71 344.606 445.471 340.544 444.182C339.333 443.795 338.122 443.42 336.907 443.022C332.083 441.456 327.255 439.823 322.376 438.096C321.368 437.745 320.349 437.362 319.341 436.999C315.2 435.51 311.048 433.967 306.872 432.37C306.102 432.073 305.337 431.788 304.567 431.487C304.591 431.475 304.606 431.46 304.63 431.448C311.138 427.749 317.61 423.897 324.059 419.979C325.63 419.022 327.196 418.065 328.759 417.096C335.2 413.112 341.606 409.065 347.923 404.889C353.356 401.288 358.735 397.588 364.071 393.858C365.501 392.858 366.923 391.842 368.356 390.835C370.2 389.522 372.056 388.229 373.88 386.909C376.298 389.17 379.02 391.092 381.985 392.604C381.274 398.108 380.509 403.553 379.669 408.928C379.356 410.909 379.075 412.909 378.751 414.874C377.54 422.159 376.216 429.338 374.774 436.37C374.477 437.788 374.149 439.151 373.845 440.557C372.95 444.745 371.974 448.823 370.985 452.901C370.571 452.795 370.165 452.698 369.751 452.592C365.106 451.397 360.423 450.135 355.712 448.78C354.692 448.499 353.673 448.186 352.657 447.889Z" fill="#8C52FF"/>
<path d="M172.649 133.264L172.517 133.237L172.489 133.37C88.5439 116.901 29.8564 128.612 11.0126 166.002C0.422796 187.006 4.02436 214.147 21.4111 244.471C32.9736 264.647 50.2158 285.713 72.583 307.147L72.5009 307.217L72.6064 307.311C61.5556 319.116 51.9384 330.698 43.8095 341.956C35.2861 339.807 25.9462 340.811 17.7158 345.53C0.840763 355.202 -5.00299 376.678 4.66498 393.542C6.96186 397.553 9.94623 400.92 13.3681 403.62C9.28608 421.881 10.9306 438.151 18.6611 451.631C39.4189 487.842 101.052 496.303 184.286 474.717L184.306 474.78L184.388 474.756C192.618 501.077 202.325 524.124 213.313 543.292C236.298 583.385 263.345 604.018 291.56 602.979C333.415 601.413 368.501 552.917 388.458 469.733L388.587 469.764L388.614 469.631C472.563 486.116 531.263 474.405 550.11 437.018C555.481 426.358 557.173 414.112 555.298 400.682C568.606 390.038 572.595 371.022 563.856 355.776C556.192 342.409 541.067 336.026 526.727 338.768C516.466 324.741 503.7 310.397 488.544 295.874L488.622 295.784L488.524 295.694C542.419 238.092 562.134 185.737 542.435 151.374C521.681 115.167 460.052 106.706 376.845 128.315L376.821 128.252L376.731 128.276C368.497 101.963 358.79 78.9087 347.802 59.7369L347.798 59.7291C324.813 19.6392 297.759 -1.00532 269.556 0.0376491C227.716 1.60796 192.626 50.1001 172.649 133.264ZM270.122 15.5259C291.892 14.7251 314.692 33.1627 334.349 67.4439C344.716 85.5455 353.946 107.385 361.817 132.46C358.786 133.35 355.7 134.401 352.645 135.35C349.63 136.292 346.634 137.19 343.602 138.206C338.72 139.823 333.79 141.592 328.86 143.377C326.247 144.319 323.661 145.19 321.044 146.182C315.466 148.284 309.852 150.565 304.227 152.874C304.099 152.647 304.005 152.409 303.876 152.186C294.212 135.323 272.708 129.506 255.86 139.163C250.224 142.393 245.852 146.96 242.852 152.213C242.704 152.167 242.552 152.116 242.407 152.065C240.688 151.491 238.977 150.952 237.259 150.389C234.993 149.643 232.727 148.901 230.474 148.198C228.649 147.62 226.841 147.081 225.024 146.53C222.884 145.881 220.751 145.233 218.63 144.616C216.806 144.085 214.997 143.573 213.181 143.061C211.06 142.463 208.935 141.874 206.817 141.311C205.056 140.838 203.302 140.377 201.54 139.924C199.368 139.366 197.208 138.823 195.044 138.292C193.376 137.881 191.708 137.483 190.052 137.092C189.286 136.913 188.505 136.71 187.747 136.538C205.54 62.9126 236.794 16.772 270.122 15.5259ZM528.966 159.088C544.845 186.784 525.481 233.635 477.134 285.26C476.333 284.538 475.485 283.823 474.669 283.104C473.571 282.135 472.454 281.167 471.341 280.194C469.317 278.44 467.267 276.694 465.196 274.952C463.985 273.94 462.77 272.924 461.548 271.909C459.481 270.21 457.384 268.514 455.267 266.819C454.001 265.807 452.747 264.803 451.47 263.792C449.278 262.077 447.048 260.37 444.813 258.67C443.56 257.721 442.325 256.756 441.067 255.815C438.536 253.92 435.946 252.038 433.364 250.17C432.352 249.436 431.36 248.694 430.341 247.967C426.747 245.401 423.102 242.85 419.392 240.311C418.298 239.561 417.165 238.835 416.063 238.081C413.427 236.299 410.774 234.522 408.079 232.76C406.392 231.655 404.669 230.565 402.962 229.471C401.274 228.389 399.61 227.295 397.895 226.221L397.892 226.206L397.88 226.194C397.798 225.581 397.692 224.983 397.61 224.374C396.696 217.682 395.727 211.069 394.645 204.549C394.622 204.405 394.591 204.256 394.563 204.112C393.477 197.612 392.294 191.217 391.04 184.893C390.888 184.116 390.747 183.327 390.587 182.545C389.356 176.467 388.036 170.495 386.649 164.596C386.403 163.526 386.149 162.46 385.888 161.381C384.485 155.585 383.017 149.877 381.466 144.268C381.372 143.92 381.286 143.538 381.192 143.19C455.895 123.877 512.177 129.803 528.966 159.088ZM502.802 390.78C510.552 404.303 525.935 410.706 540.423 407.713C540.876 415.417 539.782 423.038 536.259 430.049C521.251 459.831 466.282 469.03 391.919 454.538C391.981 454.241 392.024 453.924 392.091 453.631C393.286 447.764 394.399 441.792 395.427 435.717C395.602 434.717 395.763 433.698 395.931 432.694C396.923 426.608 397.841 420.448 398.661 414.178C398.77 413.346 398.864 412.506 398.974 411.678C399.77 405.378 400.493 398.999 401.114 392.522C401.153 392.163 401.196 391.811 401.231 391.448C401.841 384.905 402.345 378.26 402.786 371.565C402.829 370.835 402.903 370.135 402.95 369.409L402.966 369.401V369.389C404.755 368.108 406.493 366.831 408.255 365.542C409.649 364.534 411.06 363.522 412.442 362.506C415.599 360.167 418.708 357.815 421.798 355.467C422.255 355.116 422.727 354.776 423.185 354.42C426.794 351.643 430.345 348.854 433.837 346.053C434.52 345.491 435.181 344.936 435.864 344.381C438.583 342.19 441.267 339.979 443.903 337.768C445.079 336.788 446.22 335.799 447.38 334.811C449.47 333.03 451.544 331.249 453.571 329.46C454.923 328.288 456.231 327.096 457.556 325.92C459.345 324.315 461.122 322.717 462.868 321.108C464.27 319.823 465.653 318.53 467.024 317.237C468.63 315.725 470.216 314.225 471.778 312.71C473.196 311.342 474.61 309.971 475.997 308.6C476.56 308.042 477.153 307.495 477.716 306.928C491.13 319.788 502.747 332.713 512.192 345.21C498.2 355.725 493.884 375.225 502.802 390.78ZM290.989 587.491C269.231 588.295 246.423 569.862 226.77 535.577C216.395 517.483 207.173 495.639 199.31 470.569C202.462 469.647 205.673 468.557 208.849 467.553C211.696 466.659 214.532 465.811 217.392 464.854C222.587 463.131 227.829 461.253 233.075 459.35C235.364 458.51 237.63 457.753 239.927 456.889C247.536 454.014 255.188 450.979 262.88 447.733C263.196 447.6 263.52 447.444 263.841 447.311C270.606 444.444 277.399 441.452 284.212 438.299L284.227 438.303L284.247 438.292C286.872 439.342 289.481 440.331 292.095 441.338C292.868 441.631 293.642 441.936 294.407 442.233C302.681 445.37 310.903 448.315 319.056 451.049C319.962 451.354 320.864 451.643 321.763 451.936C324.837 452.952 327.899 453.944 330.954 454.913C332.36 455.346 333.767 455.768 335.169 456.194C337.712 456.967 340.247 457.729 342.774 458.475C344.333 458.92 345.876 459.354 347.427 459.792C349.813 460.463 352.196 461.12 354.567 461.756C356.138 462.178 357.696 462.588 359.255 462.987C361.645 463.616 364.024 464.202 366.403 464.78C367.876 465.143 369.341 465.495 370.802 465.842C371.653 466.042 372.517 466.26 373.364 466.456C355.579 540.096 324.325 586.241 290.989 587.491ZM32.1259 443.913C26.8447 434.702 25.5517 423.323 27.8486 410.393C36.0322 412.135 44.8525 411.022 52.6884 406.526C69.5361 396.87 75.3837 375.378 65.7314 358.538C63.6025 354.823 60.8837 351.686 57.7822 349.096C65.2626 338.932 73.958 328.46 83.9814 317.753C84.6728 318.374 85.4033 318.987 86.1064 319.612C87.4111 320.764 88.7314 321.913 90.0673 323.069C91.8955 324.659 93.7548 326.237 95.6298 327.819C96.9619 328.944 98.3056 330.057 99.6611 331.178C101.614 332.788 103.602 334.385 105.602 335.991C106.946 337.069 108.278 338.139 109.645 339.213C111.77 340.889 113.946 342.545 116.118 344.206C117.407 345.19 118.681 346.17 119.989 347.151C122.497 349.034 125.06 350.901 127.622 352.756C128.661 353.503 129.661 354.26 130.704 355.003C134.31 357.588 137.97 360.143 141.7 362.698C142.618 363.327 143.567 363.94 144.489 364.565C147.329 366.483 150.185 368.397 153.087 370.303C154.599 371.295 156.157 372.28 157.7 373.264C159.536 374.448 161.352 375.643 163.224 376.819L163.231 376.838L163.247 376.85C163.329 377.46 163.435 378.049 163.517 378.655C164.423 385.338 165.395 391.94 166.477 398.448C166.505 398.628 166.536 398.807 166.567 398.995C167.653 405.475 168.841 411.858 170.087 418.163C170.247 418.928 170.38 419.694 170.536 420.452C171.774 426.561 173.099 432.561 174.493 438.483C174.743 439.522 174.989 440.557 175.235 441.592C176.634 447.401 178.106 453.116 179.657 458.725C179.763 459.088 179.849 459.483 179.95 459.842C105.208 479.143 48.9228 473.217 32.1259 443.913ZM24.8642 172.967C39.8642 143.182 94.8329 133.983 169.192 148.456C169.095 148.92 169.017 149.417 168.927 149.885C167.782 155.487 166.72 161.194 165.743 166.991C165.536 168.225 165.329 169.463 165.13 170.706C164.161 176.663 163.259 182.682 162.462 188.815C162.337 189.702 162.235 190.612 162.122 191.51C161.325 197.831 160.599 204.217 159.981 210.71C159.95 210.987 159.915 211.268 159.892 211.557C159.27 218.17 158.763 224.893 158.333 231.682C158.286 232.327 158.22 232.952 158.177 233.604L158.169 233.608V233.631C156.419 234.877 154.716 236.135 152.985 237.397C151.552 238.436 150.106 239.467 148.685 240.506C145.423 242.913 142.216 245.331 139.044 247.752C138.692 248.026 138.333 248.288 137.977 248.557C134.329 251.362 130.739 254.182 127.216 257.014C126.786 257.37 126.356 257.717 125.927 258.073C122.935 260.491 119.981 262.913 117.079 265.35C116.145 266.131 115.243 266.924 114.317 267.702C111.95 269.717 109.599 271.737 107.298 273.764C106.243 274.698 105.196 275.631 104.153 276.557C102.02 278.46 99.915 280.37 97.833 282.284C96.7744 283.256 95.7314 284.233 94.6884 285.213C92.6376 287.131 90.6142 289.061 88.6259 290.995C87.6728 291.917 86.7275 292.831 85.79 293.756C85.0009 294.534 84.1845 295.311 83.4072 296.081C62.2783 275.827 45.5751 255.424 34.8759 236.764C24.6337 218.905 14.5947 193.354 24.8642 172.967ZM466.27 296.401C465.884 296.788 465.513 297.174 465.118 297.561C461.177 301.463 457.122 305.335 452.931 309.21C452.11 309.96 451.267 310.702 450.446 311.46C446.653 314.909 442.767 318.338 438.782 321.764C437.895 322.522 437.024 323.292 436.126 324.057C431.567 327.92 426.884 331.756 422.087 335.577C421.06 336.393 420.013 337.198 418.977 338.01C414.505 341.534 409.938 345.034 405.267 348.51C404.806 348.846 404.364 349.194 403.903 349.538C403.907 349.409 403.903 349.295 403.911 349.167C404.173 341.401 404.274 333.616 404.29 325.823C404.298 324.026 404.29 322.225 404.282 320.417C404.247 312.581 404.134 304.741 403.845 296.932C403.571 289.405 403.142 281.878 402.638 274.35C402.509 272.479 402.38 270.624 402.243 268.768C401.681 261.245 401.048 253.741 400.263 246.276C400.259 246.245 400.263 246.217 400.259 246.186C400.794 246.538 401.313 246.905 401.849 247.249C406.685 250.44 411.407 253.659 416.052 256.905C417.165 257.682 418.294 258.463 419.399 259.245C424.446 262.823 429.395 266.436 434.216 270.088C435.145 270.795 436.052 271.503 436.977 272.217C441.31 275.534 445.532 278.87 449.661 282.237C450.399 282.842 451.161 283.448 451.899 284.049C456.466 287.819 460.895 291.62 465.2 295.44C465.563 295.764 465.911 296.081 466.27 296.401ZM376.731 451.284C376.2 451.163 375.673 451.053 375.138 450.932C369.977 449.729 364.782 448.44 359.54 447.053C358.708 446.831 357.868 446.592 357.028 446.362C352.306 445.077 347.552 443.721 342.767 442.292C341.599 441.936 340.442 441.6 339.274 441.241C333.833 439.577 328.349 437.819 322.837 435.96C322.032 435.69 321.216 435.393 320.403 435.12C315.458 433.428 310.489 431.651 305.493 429.811C304.813 429.557 304.13 429.307 303.446 429.053C304.282 428.643 305.106 428.186 305.938 427.764C310.638 425.401 315.313 422.975 319.993 420.495C321.63 419.628 323.255 418.764 324.892 417.881C330.579 414.807 336.255 411.69 341.872 408.467C348.614 404.604 355.29 400.588 361.915 396.51C363.579 395.483 365.235 394.46 366.888 393.428C373.384 389.358 379.833 385.225 386.165 380.987C386.302 380.889 386.446 380.807 386.583 380.713C386.52 381.471 386.454 382.229 386.388 382.991C386.001 387.635 385.567 392.237 385.091 396.799C384.974 397.924 384.864 399.061 384.735 400.182C384.157 405.424 383.513 410.608 382.813 415.725C382.642 416.96 382.454 418.167 382.286 419.393C381.661 423.721 380.997 428.006 380.29 432.241C380.11 433.299 379.946 434.374 379.759 435.432C378.903 440.354 377.985 445.186 377.013 449.96C376.919 450.405 376.821 450.838 376.731 451.284ZM194.548 454.358C193.27 449.721 192.032 445.014 190.856 440.233C190.618 439.253 190.392 438.253 190.153 437.264C189.161 433.128 188.208 428.94 187.29 424.713C187.032 423.534 186.778 422.35 186.52 421.159C185.474 416.159 184.477 411.096 183.536 405.967C183.36 404.995 183.2 404.022 183.028 403.045C182.247 398.628 181.501 394.17 180.794 389.663C180.673 388.874 180.548 388.092 180.427 387.307C180.45 387.327 180.47 387.327 180.493 387.342C186.923 391.139 193.438 394.819 200.001 398.436C201.724 399.385 203.446 400.323 205.177 401.26C211.77 404.831 218.392 408.335 225.067 411.698C230.845 414.6 236.696 417.405 242.579 420.182C244.161 420.924 245.747 421.655 247.333 422.389C252.212 424.643 257.118 426.846 262.044 428.999C262.856 429.35 263.649 429.733 264.454 430.081C262.927 430.749 261.384 431.475 259.856 432.131C257.708 433.042 255.567 433.94 253.431 434.831C248.024 437.069 242.649 439.213 237.29 441.26C235.474 441.952 233.657 442.69 231.845 443.358C224.845 445.963 217.892 448.42 210.993 450.682C209.833 451.061 208.685 451.389 207.528 451.764C203.286 453.128 199.095 454.346 194.899 455.581C194.778 455.17 194.661 454.772 194.548 454.358ZM94.8408 306.616C95.2353 306.225 95.6103 305.827 96.0009 305.444C99.9306 301.557 103.977 297.69 108.153 293.835C109.009 293.042 109.903 292.253 110.77 291.471C114.497 288.073 118.31 284.698 122.227 281.338C123.165 280.53 124.091 279.717 125.04 278.905C129.579 275.057 134.243 271.237 139.02 267.432C140.044 266.628 141.087 265.815 142.118 265.006C146.677 261.417 151.325 257.85 156.099 254.315C156.47 254.038 156.837 253.76 157.212 253.483C157.216 253.561 157.208 253.635 157.208 253.71C156.95 261.428 156.841 269.194 156.821 276.963C156.821 278.87 156.825 280.764 156.833 282.67C156.872 290.471 156.993 298.284 157.278 306.092C157.556 313.667 157.993 321.264 158.505 328.854C158.622 330.604 158.743 332.35 158.876 334.096C159.435 341.659 160.071 349.217 160.86 356.729C160.864 356.76 160.864 356.803 160.868 356.838C160.38 356.514 159.899 356.19 159.407 355.866C154.501 352.628 149.7 349.354 144.985 346.057C143.892 345.288 142.778 344.526 141.692 343.753C136.642 340.17 131.696 336.553 126.88 332.905C125.911 332.178 124.977 331.44 124.02 330.71C119.755 327.436 115.587 324.147 111.517 320.823C110.727 320.178 109.919 319.542 109.134 318.897C104.583 315.143 100.185 311.362 95.9033 307.565C95.5439 307.245 95.2001 306.928 94.8408 306.616ZM383.392 235.51C383.665 237.76 383.927 240.018 384.181 242.28C384.458 244.721 384.747 247.151 384.997 249.596C385.294 252.487 385.544 255.381 385.806 258.28C386.028 260.713 386.27 263.143 386.466 265.585C386.712 268.663 386.907 271.749 387.122 274.835C387.27 277.085 387.45 279.331 387.575 281.581C387.888 286.893 388.149 292.21 388.337 297.518C388.536 302.967 388.665 308.448 388.743 313.936C388.767 315.495 388.751 317.057 388.763 318.616C388.79 322.526 388.817 326.44 388.778 330.35C388.763 332.405 388.708 334.448 388.669 336.499C388.618 339.893 388.563 343.288 388.454 346.67C388.384 349.03 388.27 351.381 388.177 353.733C388.075 356.17 387.974 358.596 387.852 361.026C385.63 362.573 383.388 364.108 381.134 365.635C379.458 366.764 377.802 367.924 376.106 369.045C373.259 370.948 370.364 372.815 367.47 374.682C365.751 375.795 364.04 376.928 362.298 378.03C359.185 380.003 356.036 381.936 352.895 383.866C351.36 384.799 349.849 385.764 348.306 386.69C343.618 389.526 338.895 392.303 334.153 395.022C326.227 399.569 318.2 403.948 310.138 408.186C309.649 408.444 309.165 408.706 308.681 408.963C300.895 413.03 293.063 416.92 285.231 420.651C284.747 420.893 284.259 421.124 283.77 421.358C281.708 420.506 279.649 419.651 277.599 418.792C275.688 417.987 273.782 417.202 271.888 416.381C269.185 415.221 266.493 414.014 263.802 412.823C262.013 412.026 260.216 411.245 258.431 410.44C255.556 409.139 252.708 407.795 249.852 406.456C248.278 405.717 246.685 404.995 245.114 404.245C240.72 402.139 236.352 400.01 232.032 397.835C227.247 395.424 222.485 392.96 217.743 390.44C216.286 389.667 214.856 388.866 213.415 388.077C210.149 386.323 206.892 384.565 203.645 382.753C201.825 381.737 200.036 380.686 198.231 379.655C195.384 378.034 192.544 376.417 189.727 374.756C187.806 373.628 185.911 372.471 184.001 371.331C181.892 370.065 179.786 368.799 177.7 367.51C177.411 365.159 177.149 362.795 176.884 360.436C176.622 358.124 176.349 355.811 176.106 353.487C175.786 350.378 175.513 347.249 175.227 344.128C175.032 341.924 174.813 339.733 174.638 337.534C174.352 333.991 174.118 330.432 173.88 326.893C173.763 325.104 173.618 323.323 173.517 321.53C173.2 316.178 172.938 310.827 172.747 305.491C172.544 299.979 172.411 294.463 172.337 288.948C172.317 287.491 172.333 286.026 172.325 284.565C172.298 280.542 172.274 276.522 172.306 272.51C172.321 270.534 172.376 268.553 172.411 266.569C172.47 263.112 172.528 259.659 172.634 256.217C172.712 253.913 172.821 251.627 172.915 249.331C173.009 246.87 173.118 244.42 173.239 241.967C175.056 240.702 176.899 239.456 178.731 238.198C180.876 236.737 183.005 235.26 185.177 233.823C187.763 232.1 190.388 230.413 193.005 228.717C194.954 227.456 196.88 226.167 198.841 224.928C201.884 222.999 204.958 221.116 208.028 219.233C209.614 218.256 211.185 217.268 212.782 216.303C217.47 213.467 222.188 210.69 226.935 207.971C234.056 203.885 241.306 199.936 248.614 196.077C248.915 195.917 249.224 195.752 249.532 195.588C260.513 205.659 277.173 207.975 290.813 200.155C294.731 197.909 298.024 195.006 300.696 191.686C301.313 191.967 301.938 192.233 302.556 192.51C305.263 193.745 307.954 195.014 310.649 196.272C312.395 197.096 314.149 197.893 315.895 198.725C320.302 200.835 324.696 202.979 329.052 205.167C333.86 207.585 338.649 210.065 343.403 212.592C344.852 213.366 346.278 214.163 347.724 214.94C351.001 216.706 354.267 218.471 357.509 220.288C359.349 221.315 361.157 222.37 362.985 223.413C365.794 225.01 368.614 226.612 371.395 228.252C373.325 229.389 375.231 230.549 377.149 231.706C379.247 232.983 381.325 234.241 383.392 235.51ZM240.704 182.752C239.235 183.526 237.77 184.307 236.306 185.096C230.571 188.19 224.864 191.327 219.243 194.549C212.485 198.424 205.802 202.444 199.165 206.53C197.532 207.538 195.903 208.538 194.278 209.561C187.72 213.674 181.204 217.85 174.806 222.131C174.712 222.198 174.618 222.252 174.532 222.315C174.595 221.545 174.661 220.776 174.724 220.014C175.114 215.311 175.552 210.651 176.036 206.03C176.145 205.018 176.243 203.999 176.352 202.987C176.942 197.67 177.595 192.417 178.306 187.225C178.466 186.088 178.63 184.96 178.794 183.831C179.427 179.393 180.106 175.006 180.841 170.667C181.005 169.67 181.161 168.655 181.333 167.667C182.192 162.713 183.118 157.846 184.095 153.026C184.188 152.596 184.278 152.159 184.376 151.721C184.927 151.85 185.474 151.963 186.02 152.092C191.145 153.288 196.31 154.561 201.517 155.944C202.395 156.178 203.286 156.432 204.169 156.674C208.86 157.944 213.587 159.295 218.345 160.725C219.493 161.073 220.645 161.405 221.798 161.76C227.251 163.432 232.731 165.182 238.251 167.045C237.849 172.284 238.657 177.647 240.704 182.752ZM370.985 165.842C371.958 169.913 372.892 174.026 373.794 178.194C374.06 179.436 374.337 180.674 374.595 181.928C375.634 186.889 376.618 191.893 377.552 196.983C377.743 198.03 377.919 199.104 378.102 200.163C378.872 204.495 379.599 208.866 380.29 213.284C380.415 214.096 380.548 214.901 380.669 215.721C380.645 215.706 380.626 215.698 380.606 215.686C374.161 211.877 367.599 208.178 360.993 204.534C359.38 203.647 357.77 202.764 356.153 201.889C349.493 198.284 342.798 194.741 336.036 191.335C330.208 188.413 324.321 185.585 318.435 182.811C316.852 182.065 315.267 181.338 313.677 180.596C311.622 179.651 309.579 178.682 307.524 177.756C308.286 174.534 308.599 171.217 308.438 167.893C313.563 165.772 318.665 163.729 323.747 161.784C325.622 161.069 327.497 160.319 329.364 159.624C336.286 157.053 343.173 154.627 349.989 152.385C351.364 151.936 352.712 151.542 354.087 151.108C358.161 149.799 362.185 148.62 366.216 147.448C366.329 147.858 366.45 148.26 366.563 148.67C367.837 153.295 369.067 157.987 370.235 162.749C370.501 163.772 370.735 164.811 370.985 165.842Z" fill="#8C52FF"/>
</svg>
